<?xml version="1.0" standalone="no"?><!DOCTYPE svg PUBLIC "-//W3C//DTD SVG 1.1//EN" "http://www.w3.org/Graphics/SVG/1.1/DTD/svg11.dtd"><svg t="1535963575385" class="icon" style="" viewBox="0 0 1024 1024" version="1.1" xmlns="http://www.w3.org/2000/svg" p-id="7072" xmlns:xlink="http://www.w3.org/1999/xlink" width="200" height="200"><defs><style type="text/css"></style></defs><path d="M512 0a358.4 358.4 0 0 1 358.4 358.4v307.2l92.16 122.88A51.2 51.2 0 0 1 921.6 870.4H102.4a51.2 51.2 0 0 1-40.96-81.92L153.6 665.6V358.4a358.4 358.4 0 0 1 358.4-358.4zM153.6 793.6h716.8l-61.44-81.92a76.8 76.8 0 0 1-15.36-46.08V358.4a281.6 281.6 0 0 0-563.2 0v307.2a76.8 76.8 0 0 1-15.36 46.08L153.6 793.6zM409.6 921.6h204.8a102.4 102.4 0 1 1-204.8 0z" fill="#999999" p-id="7073"></path></svg>