<?xml version="1.0" standalone="no"?><!DOCTYPE svg PUBLIC "-//W3C//DTD SVG 1.1//EN" "http://www.w3.org/Graphics/SVG/1.1/DTD/svg11.dtd"><svg t="1532614145490" class="icon" style="" viewBox="0 0 1024 1024" version="1.1" xmlns="http://www.w3.org/2000/svg" p-id="9516" xmlns:xlink="http://www.w3.org/1999/xlink" width="200" height="200"><defs><style type="text/css"></style></defs><path d="M264.746667 553.898667c88.96-8.874667 171.264 25.344 268.416 73.088-68.266667 89.856-155.264 145.792-242.346667 145.792-149.674667 0-193.962667-118.784-119.978667-183.808 24.746667-21.973333 69.845333-32.597333 93.866667-35.072zM831.018667 42.666667A150.229333 150.229333 0 0 1 981.333333 192.981333v490.24c-18.645333-3.925333-63.189333-15.146667-158.122666-47.232-38.528-12.928-90.197333-32.810667-147.754667-53.76a788.053333 788.053333 0 0 0 80.341333-204.544h-189.696V308.906667h232.362667v-38.4h-232.362667v-114.773334h-94.890666c-16.64 0-16.64 16.554667-16.64 16.554667v98.218667H219.562667v38.4h235.008v68.821333H260.522667v38.485333h376.362666a679.552 679.552 0 0 1-54.186666 133.461334c-122.154667-40.533333-252.501333-73.6-334.336-53.205334-52.352 13.013333-86.101333 36.181333-105.898667 60.501334-90.88 111.488-25.685333 280.704 166.314667 280.704 113.536 0 222.933333-63.786667 307.712-168.789334 110.165333 53.248 314.154667 139.946667 364.842666 161.365334v0.768A150.272 150.272 0 0 1 831.018667 981.333333H192.981333A150.314667 150.314667 0 0 1 42.666667 830.976V192.981333A150.272 150.272 0 0 1 192.981333 42.666667h638.037334z" p-id="9517"></path></svg>