<?xml version="1.0" standalone="no"?><!DOCTYPE svg PUBLIC "-//W3C//DTD SVG 1.1//EN" "http://www.w3.org/Graphics/SVG/1.1/DTD/svg11.dtd"><svg t="1543490354562" class="icon" style="" viewBox="0 0 1024 1024" version="1.1" xmlns="http://www.w3.org/2000/svg" p-id="7917" xmlns:xlink="http://www.w3.org/1999/xlink" width="200" height="200"><defs><style type="text/css"></style></defs><path d="M1000.768 236.8a34.24 34.24 0 0 0-43.84 20.864l-26.56 74.496a447.36 447.36 0 0 0-142.976-178.304C588.16 6.4 304.32 46.592 155.072 243.84A441.216 441.216 0 0 0 69.12 574.976a443.52 443.52 0 0 0 176.64 295.168 453.568 453.568 0 0 0 270.08 88.96 452.928 452.928 0 0 0 362.24-178.752 440.192 440.192 0 0 0 79.744-172.416 34.368 34.368 0 0 0-67.072-14.72 370.752 370.752 0 0 1-67.456 145.664c-126.592 167.168-367.488 201.28-536.704 75.904a374.656 374.656 0 0 1-149.44-249.6 372.224 372.224 0 0 1 72.64-279.872c126.4-167.168 367.104-201.472 536.448-76.16a379.008 379.008 0 0 1 132.16 179.2l-118.144-46.08a34.432 34.432 0 1 0-25.088 64.128l174.08 68.096c3.968 1.664 8.256 2.368 12.48 2.368 0.576 0 1.088-0.192 1.664-0.192 1.28 0.192 2.56 0.768 3.84 0.768 14.208 0 27.52-8.832 32.448-22.848l61.952-173.312a34.88 34.88 0 0 0-20.864-44.416z" fill="" p-id="7918"></path></svg>
