<?xml version="1.0" standalone="no"?><!DOCTYPE svg PUBLIC "-//W3C//DTD SVG 1.1//EN" "http://www.w3.org/Graphics/SVG/1.1/DTD/svg11.dtd"><svg t="1532613620213" class="icon" style="" viewBox="0 0 1024 1024" version="1.1" xmlns="http://www.w3.org/2000/svg" p-id="9056" xmlns:xlink="http://www.w3.org/1999/xlink" width="200" height="200"><defs><style type="text/css"></style></defs><path d="M512 104.533333v46.933334a403.2 403.2 0 1 0 0 806.4v46.933333C263.381333 1004.8 61.866667 803.285333 61.866667 554.666667 61.866667 306.048 263.381333 104.533333 512 104.533333z m0 900.266667v-46.933333c26.922667 0 53.504-2.645333 79.445333-7.808l9.216 45.994666c-29.013333 5.802667-58.666667 8.746667-88.661333 8.746667z m174.762667-35.2l-18.218667-43.221333a402.261333 402.261333 0 0 0 70.101333-38.186667l26.453334 38.826667c-24.661333 16.725333-50.858667 31.018667-78.336 42.581333z m147.242666-100.394667l-33.578666-32.810666a405.162667 405.162667 0 0 0 49.92-62.293334l39.338666 25.514667c-16.213333 24.96-34.858667 48.298667-55.68 69.546667z m98.56-153.728l-43.861333-16.768a400.128 400.128 0 0 0 20.949333-77.013333l46.293334 7.722667c-4.949333 29.525333-12.8 58.282667-23.381334 86.058666z m29.44-171.178666l-46.933333 1.066666a404.010667 404.010667 0 0 0-9.6-79.232l45.781333-10.24c6.442667 28.842667 10.069333 58.453333 10.752 88.405334z m-39.296-174.122667l-42.794666 19.242667a402.688 402.688 0 0 0-39.850667-69.162667l38.186667-27.306667c17.322667 24.192 32.213333 50.048 44.458666 77.226667zM818.858667 225.28l-32 34.346667a404.906667 404.906667 0 0 0-63.488-48.426667l24.618666-39.978667c25.344 15.658667 49.066667 33.749333 70.826667 54.058667z m-153.173334-93.866667l-16.042666 44.117334a400.298667 400.298667 0 0 0-77.354667-19.626667l6.954667-46.421333c29.568 4.437333 58.496 11.776 86.4 21.930666z m-163.413333-1.322666l-68.693333-68.736A23.466667 23.466667 0 0 1 466.688 28.16l85.333333 85.333333a23.466667 23.466667 0 0 1 0 33.194667l-85.333333 85.333333a23.466667 23.466667 0 0 1-33.194667-33.194666l68.736-68.736z" p-id="9057"></path></svg>