<?xml version="1.0" standalone="no"?><!DOCTYPE svg PUBLIC "-//W3C//DTD SVG 1.1//EN" "http://www.w3.org/Graphics/SVG/1.1/DTD/svg11.dtd"><svg t="1534418928509" class="icon" style="" viewBox="0 0 1024 1024" version="1.1" xmlns="http://www.w3.org/2000/svg" p-id="7866" xmlns:xlink="http://www.w3.org/1999/xlink" width="200" height="200"><defs><style type="text/css"></style></defs><path d="M279.272727 116.363636H209.826909c-27.741091 0-46.917818 17.128727-46.917818 34.443637v495.104A185.390545 185.390545 0 0 1 279.272727 605.090909h535.272728V116.363636H418.909091V279.272727l-69.818182-16.197818L279.272727 279.272727V116.363636zM814.545455 744.727273v-69.818182H279.272727a116.363636 116.363636 0 1 0 0 232.727273h535.272728v-93.090909H314.181818a34.909091 34.909091 0 1 1 0-69.818182H814.545455z m69.818181 46.545454v139.636364a46.545455 46.545455 0 0 1-46.545454 46.545454H279.272727a186.181818 186.181818 0 0 1-186.181818-186.181818V150.807273C93.090909 93.230545 144.989091 46.545455 209.826909 46.545455H837.818182a46.545455 46.545455 0 0 1 46.545454 46.545454v698.181818z" fill="#999999" p-id="7867"></path></svg>