<?xml version="1.0" standalone="no"?><!DOCTYPE svg PUBLIC "-//W3C//DTD SVG 1.1//EN" "http://www.w3.org/Graphics/SVG/1.1/DTD/svg11.dtd"><svg t="1534388364187" class="icon" style="" viewBox="0 0 1024 1024" version="1.1" xmlns="http://www.w3.org/2000/svg" p-id="5615" xmlns:xlink="http://www.w3.org/1999/xlink" width="200" height="200"><defs><style type="text/css"></style></defs><path d="M966.599111 624.412444c-25.713778 101.717333-79.530667 184.263111-161.336889 247.637334C723.342222 935.424 627.484444 967.111111 517.575111 967.111111a477.525333 477.525333 0 0 1-169.927111-30.947555 466.944 466.944 0 0 1-146.545778-89.201778l-77.937778 73.728a37.603556 37.603556 0 0 1-27.306666 11.036444 38.912 38.912 0 0 1-27.306667-11.036444A33.678222 33.678222 0 0 1 56.888889 894.862222v-254.976c0-9.614222 3.925333-18.432 11.719111-25.827555a37.603556 37.603556 0 0 1 27.306667-11.036445h269.653333c10.126222 0 19.512889 3.697778 27.306667 11.036445 7.793778 7.395556 11.662222 15.473778 11.662222 25.827555a34.816 34.816 0 0 1-11.662222 25.770667l-82.659556 78.108444c28.842667 25.088 60.871111 44.259556 96.711111 58.254223 35.84 13.994667 74.012444 20.650667 112.241778 20.650666 53.76 0 103.651556-12.515556 150.414222-36.864a296.618667 296.618667 0 0 0 112.241778-101.717333c4.721778-6.599111 14.791111-28.728889 31.971556-66.332445 3.128889-8.817778 9.386667-13.255111 17.92-13.255111h115.370666a17.635556 17.635556 0 0 1 13.255111 5.12 16.782222 16.782222 0 0 1 5.461334 12.515556c1.592889 0 1.592889 1.536 0.796444 2.275555zM967.111111 130.275556v254.008888a34.702222 34.702222 0 0 1-11.662222 25.656889 37.489778 37.489778 0 0 1-27.192889 11.036445h-268.686222a38.798222 38.798222 0 0 1-27.192889-11.036445 33.564444 33.564444 0 0 1-11.662222-25.656889 34.702222 34.702222 0 0 1 11.662222-25.713777l83.854222-78.506667c-58.993778-52.167111-128.910222-77.824-209.692444-77.824-53.589333 0-103.253333 12.515556-149.845334 36.693333a295.537778 295.537778 0 0 0-111.843555 101.262223c-4.664889 6.656-14.791111 28.672-31.857778 66.104888-3.128889 8.817778-9.329778 13.198222-17.863111 13.198223H75.548444a17.521778 17.521778 0 0 1-13.198222-5.12 16.725333 16.725333 0 0 1-5.461333-12.515556V398.222222a438.044444 438.044444 0 0 1 162.304-246.613333C301.511111 88.462222 397.084444 56.888889 507.335111 56.888889c58.254222 0 114.915556 10.24 170.097778 31.573333 55.182222 21.276444 104.106667 50.631111 146.773333 88.803556l77.653334-73.386667a37.489778 37.489778 0 0 1 27.192888-11.036444c10.126222 0 19.399111 3.697778 27.192889 11.036444A34.360889 34.360889 0 0 1 967.111111 130.275556z" fill="#999999" p-id="5616"></path></svg>