<?xml version="1.0" standalone="no"?><!DOCTYPE svg PUBLIC "-//W3C//DTD SVG 1.1//EN" "http://www.w3.org/Graphics/SVG/1.1/DTD/svg11.dtd"><svg t="1534388328560" class="icon" style="" viewBox="0 0 1024 1024" version="1.1" xmlns="http://www.w3.org/2000/svg" p-id="5243" xmlns:xlink="http://www.w3.org/1999/xlink" width="200" height="200"><defs><style type="text/css"></style></defs><path d="M153.543111 54.840889L513.479111 0l357.091556 54.727111A113.777778 113.777778 0 0 1 967.111111 167.253333v449.308445a227.555556 227.555556 0 0 1-108.202667 193.706666L512 1024l-346.908444-213.788444A227.555556 227.555556 0 0 1 56.888889 616.504889V167.253333A113.777778 113.777778 0 0 1 153.543111 54.840889zM759.239111 284.444444c-112.241778 55.352889-219.022222 130.616889-320.398222 225.848889-69.12-47.104-129.706667-75.036444-181.930667-83.854222L227.555556 466.090667C312.547556 539.875556 382.976 612.067556 438.840889 682.666667 542.094222 549.944889 661.276444 424.504889 796.444444 306.460444L759.239111 284.444444z" fill="#999999" p-id="5244"></path></svg>