<?xml version="1.0" standalone="no"?><!DOCTYPE svg PUBLIC "-//W3C//DTD SVG 1.1//EN" "http://www.w3.org/Graphics/SVG/1.1/DTD/svg11.dtd"><svg t="1534388345349" class="icon" style="" viewBox="0 0 1024 1024" version="1.1" xmlns="http://www.w3.org/2000/svg" p-id="5367" xmlns:xlink="http://www.w3.org/1999/xlink" width="200" height="200"><defs><style type="text/css"></style></defs><path d="M902.542222 135.054222C859.875556 89.998222 804.693333 55.694222 739.555556 33.166222 675.555556 11.264 599.096889 0 512.568889 0 335.416889 0 207.985778 43.235556 122.083556 132.664889 40.277333 218.567111 0 342.300444 0 512.284444s40.277333 293.774222 122.652444 379.619556C208.554667 980.764444 335.985778 1024 512 1024c339.569778 0 512-172.373333 512-511.715556 0-168.163556-39.708444-291.384889-121.457778-377.230222zM350.208 746.837333c-62.179556 0-123.847111-39.708444-123.847111-39.708444v-94.72c110.250667 100.067556 182.499556 56.832 182.499555 11.207111 0-44.942222-41.472-58.026667-87.665777-81.692444-46.819556-23.722667-94.833778-52.110222-94.833778-126.748445 0-74.638222 78.222222-111.957333 137.500444-111.957333 59.278222 0 112.014222 28.444444 112.014223 28.444444v83.512889c-72.305778-60.984889-166.570667-39.708444-166.570667 5.347556 0 32.540444 64 56.832 90.680889 69.290666 26.680889 12.401778 87.722667 49.152 87.722666 132.664889 0 104.220444-75.264 124.359111-137.500444 124.359111z m363.861333-169.415111a51.825778 51.825778 0 0 1-52.167111-52.110222c0-28.444444 23.722667-52.110222 52.167111-52.110222 29.013333 0 52.167111 23.096889 52.167111 52.110222 0 28.444444-23.096889 52.110222-52.167111 52.110222z m90.680889-162.247111s-78.848-58.026667-182.556444-17.180444v350.606222H541.639111V331.662222s116.736-66.332444 262.485333 0l0.568889 83.512889z" fill="#999999" p-id="5368"></path></svg>