<?xml version="1.0" standalone="no"?><!DOCTYPE svg PUBLIC "-//W3C//DTD SVG 1.1//EN" "http://www.w3.org/Graphics/SVG/1.1/DTD/svg11.dtd"><svg t="1543892189016" class="icon" style="" viewBox="0 0 1024 1024" version="1.1" xmlns="http://www.w3.org/2000/svg" p-id="11864" xmlns:xlink="http://www.w3.org/1999/xlink" width="200" height="200"><defs><style type="text/css"></style></defs><path d="M512 512m-512 0a512 512 0 1 0 1024 0 512 512 0 1 0-1024 0Z" fill="#EA5645" p-id="11865"></path><path d="M536.868571 365.714286l168.228572 153.6a36.571429 36.571429 0 0 1 0 51.931428 38.034286 38.034286 0 0 1-24.137143 13.897143H343.04a36.571429 36.571429 0 0 1-36.571429-36.571428 35.108571 35.108571 0 0 1 12.434286-27.062858L487.131429 365.714286a38.034286 38.034286 0 0 1 49.737142 0z" fill="#C03A2A" p-id="11866"></path></svg>