<?xml version="1.0" standalone="no"?><!DOCTYPE svg PUBLIC "-//W3C//DTD SVG 1.1//EN" "http://www.w3.org/Graphics/SVG/1.1/DTD/svg11.dtd"><svg t="1534419043150" class="icon" style="" viewBox="0 0 1024 1024" version="1.1" xmlns="http://www.w3.org/2000/svg" p-id="7990" xmlns:xlink="http://www.w3.org/1999/xlink" width="200" height="200"><defs><style type="text/css"></style></defs><path d="M802.909091 418.909091v-11.636364a290.909091 290.909091 0 1 0-581.818182 0V418.909091H232.727273a46.545455 46.545455 0 0 1 46.545454 46.545454v232.727273a46.545455 46.545455 0 0 1-46.545454 46.545455H186.181818a139.636364 139.636364 0 0 1-139.636363-139.636364v-46.545454c0-65.070545 44.497455-119.714909 104.727272-135.214546V407.272727a360.727273 360.727273 0 0 1 721.454546 0v16.058182A139.682909 139.682909 0 0 1 977.454545 558.545455v46.545454a139.682909 139.682909 0 0 1-104.727272 135.214546v4.887272A174.545455 174.545455 0 0 1 698.181818 919.738182h-46.545454V977.454545h-186.181819a46.545455 46.545455 0 0 1-46.545454-46.545454v-93.090909a46.545455 46.545455 0 0 1 46.545454-46.545455h186.181819v58.647273h46.545454a104.727273 104.727273 0 0 0 104.727273-104.727273V744.727273H791.272727a46.545455 46.545455 0 0 1-46.545454-46.545455v-232.727273a46.545455 46.545455 0 0 1 46.545454-46.545454h11.636364z m-314.181818 442.181818v46.545455h93.090909v-46.545455h-93.090909z m-279.272728-186.181818v-186.181818H186.181818A69.818182 69.818182 0 0 0 116.363636 558.545455v46.545454A69.818182 69.818182 0 0 0 186.181818 674.909091h23.272727z m605.09091 0h23.272727a69.818182 69.818182 0 0 0 69.818182-69.818182v-46.545454a69.818182 69.818182 0 0 0-69.818182-69.818182h-23.272727v186.181818z" fill="#999999" p-id="7991"></path></svg>