<?xml version="1.0" standalone="no"?><!DOCTYPE svg PUBLIC "-//W3C//DTD SVG 1.1//EN" "http://www.w3.org/Graphics/SVG/1.1/DTD/svg11.dtd"><svg t="1544522967130" class="icon" style="" viewBox="0 0 1024 1024" version="1.1" xmlns="http://www.w3.org/2000/svg" p-id="2165" xmlns:xlink="http://www.w3.org/1999/xlink" width="200" height="200"><defs><style type="text/css"></style></defs><path d="M870.4 870.4a102.4 102.4 0 0 1-204.8 0H358.4a102.4 102.4 0 0 1-204.8 0H51.1488C22.8864 870.4 0 847.3088 0 818.8416V204.3904C0 148.1216 45.9264 102.4 102.5536 102.4h460.4928C619.8784 102.4 665.6 148.0704 665.6 204.3904V256h76.8c56.832 0 124.1088 40.3456 150.8864 90.0608l106.5472 197.8368c13.5168 25.088 24.1664 68.0448 24.1664 96.5632v178.2784c0 28.6208-22.8352 51.6608-51.0464 51.6608H870.4zM76.8 793.6h512V204.3904a25.344 25.344 0 0 0-25.7536-25.1904H102.5536a25.4976 25.4976 0 0 0-25.7536 25.1904V793.6z" p-id="2166"></path></svg>