<?xml version="1.0" standalone="no"?><!DOCTYPE svg PUBLIC "-//W3C//DTD SVG 1.1//EN" "http://www.w3.org/Graphics/SVG/1.1/DTD/svg11.dtd"><svg t="1534314444809" class="icon" style="" viewBox="0 0 1024 1024" version="1.1" xmlns="http://www.w3.org/2000/svg" p-id="14712" xmlns:xlink="http://www.w3.org/1999/xlink" width="200" height="200"><defs><style type="text/css"></style></defs><path d="M557.45 512l170.16428583984373 170.1a32.142857519531255 32.142857519531255 0 0 1-45.51428583984375 45.51428583984375L512 557.45l-170.1 170.16428583984373a32.142857519531255 32.142857519531255 0 1 1-45.51428583984375-45.51428583984375L466.54999999999995 512 296.3857141601562 341.9a32.142857519531255 32.142857519531255 0 0 1 45.51428583984375-45.51428583984375L512 466.54999999999995l170.1-170.16428583984373a32.142857519531255 32.142857519531255 0 0 1 45.51428583984375 45.51428583984375L557.45 512zM512 62a450 450 0 1 0 0 900A450 450 0 0 0 512 62z" p-id="14713"></path></svg>