<?xml version="1.0" standalone="no"?><!DOCTYPE svg PUBLIC "-//W3C//DTD SVG 1.1//EN" "http://www.w3.org/Graphics/SVG/1.1/DTD/svg11.dtd"><svg t="1532615613457" class="icon" style="" viewBox="0 0 1024 1024" version="1.1" xmlns="http://www.w3.org/2000/svg" p-id="3759" xmlns:xlink="http://www.w3.org/1999/xlink" width="200" height="200"><defs><style type="text/css"></style></defs><path d="M918.357333 343.68C941.653333 399.786667 1024 447.488 1024 512s-82.346667 112.213333-105.642667 168.32c-24.106667 58.154667-0.469333 149.888-44.330666 193.706667-43.818667 43.861333-135.552 20.224-193.706667 44.373333C624.213333 941.653333 576.512 1024 512 1024s-112.213333-82.346667-168.32-105.642667c-58.154667-24.106667-149.888-0.469333-193.706667-44.330666-43.861333-43.818667-20.224-135.552-44.373333-193.706667C82.346667 624.213333 0 576.512 0 512s82.346667-112.213333 105.642667-168.32c24.106667-58.154667 0.469333-149.888 44.330666-193.706667 43.818667-43.861333 135.552-20.224 193.706667-44.373333C399.786667 82.346667 447.488 0 512 0s112.213333 82.346667 168.32 105.642667c58.154667 24.106667 149.888 0.469333 193.706667 44.330666 43.861333 43.818667 20.224 135.552 44.373333 193.706667z m-320.213333 318.250667c25.514667-32.213333 38.229333-85.162667 38.229333-158.805334 0-73.813333-12.629333-126.634667-37.973333-158.506666-21.205333-26.88-50.688-40.362667-88.405333-40.362667-37.674667 0-67.072 13.269333-88.149334 39.850667-25.472 32.213333-38.229333 84.949333-38.229333 158.250666 0 74.666667 11.605333 126.592 34.773333 155.733334 23.210667 29.098667 53.76 43.648 91.605334 43.648 37.717333 0 67.114667-13.269333 88.149333-39.808z m-64.085333-287.146667c6.954667 5.717333 12.8 17.152 17.365333 34.218667 4.608 17.066667 6.912 48.469333 6.912 94.122666s-2.56 78.08-7.68 97.194667c-3.925333 14.848-9.386667 25.173333-16.469333 30.933333a37.290667 37.290667 0 0 1-24.192 8.618667 37.12 37.12 0 0 1-24.021334-8.490667c-6.997333-5.674667-12.8-17.066667-17.365333-34.133333-4.608-17.066667-6.912-48.426667-6.912-94.122667 0-45.653333 2.56-78.122667 7.68-97.450666 3.882667-14.848 9.386667-25.173333 16.469333-30.933334a37.290667 37.290667 0 0 1 24.149334-8.618666c9.045333 0 17.066667 2.901333 24.064 8.618666z" fill="#5C7096" p-id="3760"></path></svg>