<?xml version="1.0" standalone="no"?><!DOCTYPE svg PUBLIC "-//W3C//DTD SVG 1.1//EN" "http://www.w3.org/Graphics/SVG/1.1/DTD/svg11.dtd"><svg t="1535014712359" class="icon" style="" viewBox="0 0 1024 1024" version="1.1" xmlns="http://www.w3.org/2000/svg" p-id="6660" xmlns:xlink="http://www.w3.org/1999/xlink" width="200" height="200"><defs><style type="text/css"></style></defs><path d="M73.142857 585.142857V438.857143H0V365.714286h73.142857V219.428571a146.285714 146.285714 0 0 1 146.285714-146.285714h146.285715V0h73.142857v73.142857h146.285714V0h73.142857v73.142857h146.285715a146.285714 146.285714 0 0 1 146.285714 146.285714v146.285715h73.142857v73.142857h-73.142857v146.285714h73.142857v73.142857h-73.142857v146.285715a146.285714 146.285714 0 0 1-146.285714 146.285714H658.285714v73.142857H585.142857v-73.142857H438.857143v73.142857H365.714286v-73.142857H219.428571a146.285714 146.285714 0 0 1-146.285714-146.285714V658.285714H0V585.142857h73.142857z m73.142857 0v219.428572a73.142857 73.142857 0 0 0 73.142857 73.142857h585.142858a73.142857 73.142857 0 0 0 73.142857-73.142857V219.428571a73.142857 73.142857 0 0 0-73.142857-73.142857H219.428571a73.142857 73.142857 0 0 0-73.142857 73.142857v365.714286z m219.428572-292.571428h292.571428a73.142857 73.142857 0 0 1 73.142857 73.142857v292.571428a73.142857 73.142857 0 0 1-73.142857 73.142857H365.714286a73.142857 73.142857 0 0 1-73.142857-73.142857V365.714286a73.142857 73.142857 0 0 1 73.142857-73.142857z m0 73.142857v292.571428h292.571428V365.714286H365.714286z" fill="#333333" p-id="6661"></path></svg>