<?xml version="1.0" standalone="no"?><!DOCTYPE svg PUBLIC "-//W3C//DTD SVG 1.1//EN" "http://www.w3.org/Graphics/SVG/1.1/DTD/svg11.dtd"><svg t="1533200741434" class="icon" style="" viewBox="0 0 1024 1024" version="1.1" xmlns="http://www.w3.org/2000/svg" p-id="4163" xmlns:xlink="http://www.w3.org/1999/xlink" width="200" height="200"><defs><style type="text/css"></style></defs><path d="M512 1024C229.229714 1024 0 794.770286 0 512S229.229714 0 512 0s512 229.229714 512 512-229.229714 512-512 512z m182.857143-512a73.142857 73.142857 0 1 0 0-146.285714 73.142857 73.142857 0 0 0 0 146.285714zM329.142857 512a73.142857 73.142857 0 1 0 0-146.285714 73.142857 73.142857 0 0 0 0 146.285714z m384 237.348571c-1.462857-77.494857-85.942857-145.92-182.857143-145.92-97.828571 0-184.32 69.339429-182.857143 146.651429a18.285714 18.285714 0 0 0 36.571429-0.731429c-1.024-54.601143 67.291429-109.348571 146.285714-109.348571 78.336 0 145.188571 54.162286 146.285715 110.08a18.285714 18.285714 0 0 0 36.571428-0.731429z" fill="#cbcbcb" p-id="4164"></path></svg>