<?xml version="1.0" standalone="no"?><!DOCTYPE svg PUBLIC "-//W3C//DTD SVG 1.1//EN" "http://www.w3.org/Graphics/SVG/1.1/DTD/svg11.dtd"><svg t="1534402027630" class="icon" style="" viewBox="0 0 1024 1024" version="1.1" xmlns="http://www.w3.org/2000/svg" p-id="6111" xmlns:xlink="http://www.w3.org/1999/xlink" width="200" height="200"><defs><style type="text/css"></style></defs><path d="M365.714286 73.142857a73.142857 73.142857 0 0 1 73.142857-73.142857h146.285714a73.142857 73.142857 0 0 1 73.142857 73.142857h73.142857a146.285714 146.285714 0 0 1 146.285715 146.285714v658.285715a146.285714 146.285714 0 0 1-146.285715 146.285714H292.571429a146.285714 146.285714 0 0 1-146.285715-146.285714V219.428571a146.285714 146.285714 0 0 1 146.285715-146.285714h73.142857z m0 73.142857H292.571429a73.142857 73.142857 0 0 0-73.142858 73.142857v658.285715a73.142857 73.142857 0 0 0 73.142858 73.142857h438.857142a73.142857 73.142857 0 0 0 73.142858-73.142857V219.428571a73.142857 73.142857 0 0 0-73.142858-73.142857H365.714286z m195.072 146.285715L512 512h146.285714l-184.393143 292.571429L512 585.142857H365.714286l195.072-292.571428z" fill="#333333" p-id="6112"></path></svg>