<?xml version="1.0" standalone="no"?><!DOCTYPE svg PUBLIC "-//W3C//DTD SVG 1.1//EN" "http://www.w3.org/Graphics/SVG/1.1/DTD/svg11.dtd"><svg t="1550740299034" class="icon" style="" viewBox="0 0 1024 1024" version="1.1" xmlns="http://www.w3.org/2000/svg" p-id="26754" xmlns:xlink="http://www.w3.org/1999/xlink" width="200" height="200"><defs><style type="text/css"></style></defs><path d="M358.4 55.808A51.2 51.2 0 0 1 414.0032 4.8128l460.8 39.936A51.2 51.2 0 0 1 921.6 95.744v832.512a51.2 51.2 0 0 1-46.7968 51.0464l-460.8 39.8848A51.2 51.2 0 0 1 358.4 968.192V972.8H153.6a51.2 51.2 0 0 1-51.2-51.2V102.4a51.2 51.2 0 0 1 51.2-51.2h204.8v4.608zM550.4 460.8a38.4 38.4 0 0 1 38.4 38.4v76.8a38.4 38.4 0 1 1-76.8 0v-76.8a38.4 38.4 0 0 1 38.4-38.4zM435.2 940.288l409.6-35.4816V119.1936l-409.6-35.4816v856.576z" p-id="26755"></path></svg>