<?xml version="1.0" standalone="no"?><!DOCTYPE svg PUBLIC "-//W3C//DTD SVG 1.1//EN" "http://www.w3.org/Graphics/SVG/1.1/DTD/svg11.dtd"><svg t="1544421066195" class="icon" style="" viewBox="0 0 1024 1024" version="1.1" xmlns="http://www.w3.org/2000/svg" p-id="14754" xmlns:xlink="http://www.w3.org/1999/xlink" width="200" height="200"><defs><style type="text/css"></style></defs><path d="M38.4 921.6h947.2a38.4 38.4 0 1 1 0 76.8H38.4a38.4 38.4 0 1 1 0-76.8zM777.216 118.1696L282.9312 612.352a25.6 25.6 0 0 0-7.168 13.8752l-20.48 122.4704 122.4192-20.5824a25.6 25.6 0 0 0 13.824-7.168l494.2336-494.1312-108.6464-108.6464z m36.1472-72.3968l144.8448 144.8448a51.2 51.2 0 0 1 0 72.3968L445.9008 775.2704a102.4 102.4 0 0 1-55.4496 28.5696l-157.8496 26.5216a51.2 51.2 0 0 1-58.9824-58.9824l26.5216-157.8496a102.4 102.4 0 0 1 28.5696-55.4496L740.9664 45.7728a51.2 51.2 0 0 1 72.3968 0z" p-id="14755"></path></svg>