<?xml version="1.0" standalone="no"?><!DOCTYPE svg PUBLIC "-//W3C//DTD SVG 1.1//EN" "http://www.w3.org/Graphics/SVG/1.1/DTD/svg11.dtd"><svg t="1553568312740" class="icon" style="" viewBox="0 0 1228 1024" version="1.1" xmlns="http://www.w3.org/2000/svg" p-id="6455" xmlns:xlink="http://www.w3.org/1999/xlink" width="239.84375" height="200"><defs><style type="text/css"></style></defs><path d="M96.378533 102.403318h1030.898049a40.959853 40.959853 0 0 1 40.796013 37.355385l55.131961 625.579828-12.287955 182.271344A81.919705 81.919705 0 0 1 1129.140255 1024H94.248621a81.919705 81.919705 0 0 1-81.714906-76.144366L0 770.499473 55.58252 139.758703A40.959853 40.959853 0 0 1 96.378533 102.403318z m123.330116 102.399631a40.959853 40.959853 0 0 0-40.918893 39.260019l-17.059778 409.598525A40.959853 40.959853 0 0 0 202.64887 696.32118h156.323278a81.919705 81.919705 0 0 1 73.277176 45.281117L440.318415 757.760958c18.841532 37.662584 57.302834 61.439779 99.409562 61.439779h149.339622a111.14456 111.14456 0 0 0 99.409562-61.439779l8.069091-16.158661A81.919705 81.919705 0 0 1 869.823429 696.32118h148.540905a40.959853 40.959853 0 0 0 40.918893-42.659687l-17.059779-409.598525A40.959853 40.959853 0 0 0 1001.304555 204.802949H219.708649z" fill="#D9F3F0" p-id="6456"></path><path d="M552.79417 61.320586A57.630513 57.630513 0 0 1 610.97764 0.003686h6.840296a57.671472 57.671472 0 0 1 58.18347 61.3169l-16.220101 307.506093c-1.187836 22.527919-20.479926 40.775533-43.110245 40.775533h-4.546544a43.499363 43.499363 0 0 1-43.110244-40.755053l-16.220102-307.526573zM614.397788 593.921548a61.439779 61.439779 0 1 1 0-122.879557 61.439779 61.439779 0 0 1 0 122.879557z" fill="#42D6C9" p-id="6457"></path></svg>