<?xml version="1.0" standalone="no"?><!DOCTYPE svg PUBLIC "-//W3C//DTD SVG 1.1//EN" "http://www.w3.org/Graphics/SVG/1.1/DTD/svg11.dtd"><svg t="1532615713449" class="icon" style="" viewBox="0 0 1024 1024" version="1.1" xmlns="http://www.w3.org/2000/svg" p-id="3989" xmlns:xlink="http://www.w3.org/1999/xlink" width="200" height="200"><defs><style type="text/css"></style></defs><path d="M512 0c-282.624 0-512 229.376-512 512s229.376 512 512 512S1024 794.624 1024 512s-229.376-512-512-512z m293.376 578.048c-16.896 70.656-52.224 128-105.984 172.032-53.76 44.032-116.736 66.048-188.928 66.048-38.4 0-75.776-7.168-111.616-21.504-35.84-14.336-68.096-35.328-96.256-61.952l-51.2 51.2c-5.12 5.12-10.752 7.68-17.92 7.68-6.656 0-12.8-2.56-17.92-7.68s-7.68-10.752-7.68-17.92V588.8c0-6.656 2.56-12.8 7.68-17.92s10.752-7.68 17.92-7.68h177.152c6.656 0 12.8 2.56 17.92 7.68s7.68 10.752 7.68 17.92c0 6.656-2.56 12.8-7.68 17.92l-54.272 54.272c18.944 17.408 39.936 30.72 63.488 40.448 23.552 9.728 48.64 14.336 73.728 14.336 35.328 0 68.096-8.704 98.816-25.6s55.296-40.96 73.728-70.656c3.072-4.608 9.728-19.968 20.992-46.08 2.048-6.144 6.144-9.216 11.776-9.216h75.776c3.584 0 6.144 1.024 8.704 3.584 2.56 2.56 3.584 5.632 3.584 8.704 1.024 0 1.024 1.024 0.512 1.536z m10.24-318.976v177.152c0 6.656-2.56 12.8-7.68 17.92s-10.752 7.68-17.92 7.68h-177.152c-6.656 0-12.8-2.56-17.92-7.68s-7.68-10.752-7.68-17.92c0-6.656 2.56-12.8 7.68-17.92L650.24 363.52c-38.912-36.352-84.992-54.272-138.24-54.272-35.328 0-68.096 8.704-98.816 25.6s-55.296 40.96-73.728 70.656c-3.072 4.608-9.728 19.968-20.992 46.08-2.048 6.144-6.144 9.216-11.776 9.216h-78.848c-3.584 0-6.144-1.024-8.704-3.584-2.56-2.56-3.584-5.632-3.584-8.704v-2.56c16.896-70.656 52.736-128 107.008-172.032 54.272-44.032 117.248-66.048 189.952-66.048 38.4 0 75.776 7.168 112.128 22.016 36.352 14.848 68.608 35.328 96.768 61.952l51.2-51.2c5.12-5.12 10.752-7.68 17.92-7.68 6.656 0 12.8 2.56 17.92 7.68s7.168 11.264 7.168 18.432z" fill="#5C7096" p-id="3990"></path></svg>