<?xml version="1.0" standalone="no"?><!DOCTYPE svg PUBLIC "-//W3C//DTD SVG 1.1//EN" "http://www.w3.org/Graphics/SVG/1.1/DTD/svg11.dtd"><svg t="1550740304914" class="icon" style="" viewBox="0 0 1024 1024" version="1.1" xmlns="http://www.w3.org/2000/svg" p-id="26864" xmlns:xlink="http://www.w3.org/1999/xlink" width="200" height="200"><defs><style type="text/css"></style></defs><path d="M102.4 489.1136a52.0192 52.0192 0 0 1 4.608-24.1664l118.2208-256a51.2 51.2 0 0 1 46.4384-29.7472h224.256l31.8976-137.4208a51.2 51.2 0 0 1 81.92-28.3648l186.0608 149.504a51.2 51.2 0 0 1 15.7696 21.5552l106.496 277.9136a51.2 51.2 0 0 1 3.328 20.8896c0.1536 1.024 0.2048 2.048 0.2048 3.1232V972.8a51.2 51.2 0 0 1-51.2 51.2H153.6a51.2 51.2 0 0 1-51.2-51.2V489.1136z m76.8 48.4864v409.6h665.6v-409.6h-665.6z m635.5968-130.0992l-72.4992-189.0816L593.408 98.816l-28.4672 122.624 249.856 186.0608zM193.536 460.8h298.7008V256H288.0512L193.536 460.8zM307.2 768h153.6a51.2 51.2 0 0 1 0 102.4H307.2a51.2 51.2 0 0 1 0-102.4z" p-id="26865"></path></svg>