<?xml version="1.0" standalone="no"?><!DOCTYPE svg PUBLIC "-//W3C//DTD SVG 1.1//EN" "http://www.w3.org/Graphics/SVG/1.1/DTD/svg11.dtd"><svg t="1553578611603" class="icon" style="" viewBox="0 0 1024 1024" version="1.1" xmlns="http://www.w3.org/2000/svg" p-id="2615" xmlns:xlink="http://www.w3.org/1999/xlink" width="200" height="200"><defs><style type="text/css"></style></defs><path d="M430.665143 265.654857l36.864 22.235429c-27.501714 48.566857-55.003429 88.356571-82.505143 119.369143-29.257143 33.938286-68.461714 67.291429-117.028571 100.059428l-22.820572-36.864a422.619429 422.619429 0 0 0 108.251429-89.526857 617.984 617.984 0 0 0 77.238857-115.273143zM449.974857 526.628571H331.776v-40.374857h349.330286c-1.755429 73.142857-5.266286 132.242286-11.117715 177.298286-5.851429 44.470857-15.213714 76.068571-28.672 93.622857-12.873143 16.969143-33.938286 26.331429-63.195428 28.086857H471.625143l-11.702857-41.545143c33.938286 1.170286 66.121143 1.755429 96.548571 1.755429 31.597714 0 52.077714-13.458286 62.025143-40.374857 10.532571-28.086857 16.969143-87.186286 19.894857-178.468572H492.690286c-14.043429 63.780571-33.353143 114.688-58.514286 152.137143-29.842286 42.130286-74.898286 79.579429-134.582857 112.932572l-26.916572-35.108572c53.833143-29.257143 94.793143-61.44 122.294858-96.548571 24.576-33.938286 42.715429-78.409143 55.003428-133.412572z m145.700572-268.580571c33.938286 90.112 94.208 161.499429 181.394285 213.577143l-28.086857 33.353143C658.285714 446.464 595.090286 370.980571 559.396571 278.528l36.278858-20.48zM512 950.857143A438.857143 438.857143 0 1 0 512 73.142857a438.857143 438.857143 0 0 0 0 877.714286z m0 36.571428a475.428571 475.428571 0 1 1 0-950.857142 475.428571 475.428571 0 0 1 0 950.857142z" fill="#666666" p-id="2616"></path></svg>