<?xml version="1.0" standalone="no"?><!DOCTYPE svg PUBLIC "-//W3C//DTD SVG 1.1//EN" "http://www.w3.org/Graphics/SVG/1.1/DTD/svg11.dtd"><svg t="1532602679696" class="icon" style="" viewBox="0 0 1024 1024" version="1.1" xmlns="http://www.w3.org/2000/svg" p-id="7436" xmlns:xlink="http://www.w3.org/1999/xlink" width="200" height="200"><defs><style type="text/css"></style></defs><path d="M712 156H832c22.08 0 40 17.92 40 40V896c0 22.08-17.92 40-40 40H192c-22.08 0-40-17.92-40-40V196c0-22.08 17.92-40 40-40h120V96H352v60h320V96h40v60z m0 40V256H672V196H352V256H312V196H192V896h640V196h-120z m-60 200h120v120h-120v-120z m40 80h40v-40h-40v40z m-120 140v40h-120v-40h120z m200 0v40h-120v-40h120z m-400 0v40h-120v-40h120z m0-180v40h-120v-40h120z m200 0v40h-120v-40h120z" fill="#BBBBBB" p-id="7437"></path></svg>