<?xml version="1.0" standalone="no"?><!DOCTYPE svg PUBLIC "-//W3C//DTD SVG 1.1//EN" "http://www.w3.org/Graphics/SVG/1.1/DTD/svg11.dtd"><svg t="1534386368900" class="icon" style="" viewBox="0 0 1024 1024" version="1.1" xmlns="http://www.w3.org/2000/svg" p-id="5058" xmlns:xlink="http://www.w3.org/1999/xlink" width="200" height="200"><defs><style type="text/css"></style></defs><path d="M227.566933 810.349808a455.092907 455.092907 0 1 1 568.866134 0v156.779507a56.886613 56.886613 0 0 1-65.192059 56.317747L512 991.021692l-219.241008 32.311597A56.886613 56.886613 0 0 1 227.566933 967.129315v-156.779507zM512 796.412588A341.319681 341.319681 0 1 0 512 113.773227a341.319681 341.319681 0 0 0 0 682.639361z m0-56.886613A284.433067 284.433067 0 1 1 512 170.65984a284.433067 284.433067 0 0 1 0 568.866135z" fill="#999999" p-id="5059"></path></svg>