<?xml version="1.0" standalone="no"?><!DOCTYPE svg PUBLIC "-//W3C//DTD SVG 1.1//EN" "http://www.w3.org/Graphics/SVG/1.1/DTD/svg11.dtd"><svg t="1532599325925" class="icon" style="" viewBox="0 0 1024 1024" version="1.1" xmlns="http://www.w3.org/2000/svg" p-id="5941" xmlns:xlink="http://www.w3.org/1999/xlink" width="200" height="200"><defs><style type="text/css"></style></defs><path d="M874.6664916666666 884.3637H304.4849326666667v-46.545434h558.545201V46.545899H235.03914666666665C196.03407366666664 46.545899 164.84863266666665 77.731339 164.84863266666665 116.503685V884.3637H118.30319966666666V116.503685A116.410129 116.410129 0 0 1 235.03914666666665 0.000465H909.5755666666666v884.363235h-34.909075zM863.0301336666666 744.7274H257.9394996666667c-51.665431 0-93.090867 41.658163-93.090867 93.556321v45.614525C164.84863266666665 935.563677 206.59988666666666 977.454567 257.9394996666667 977.454567h605.090634v-232.727167zM118.30319966666666 838.283721A139.589755 139.589755 0 0 1 257.9394996666667 698.181966h651.636067v325.818034H257.9394996666667c-77.125783 0-139.6363-62.836335-139.6363-140.101754v-45.614525z" p-id="5942"></path></svg>