<?xml version="1.0" standalone="no"?><!DOCTYPE svg PUBLIC "-//W3C//DTD SVG 1.1//EN" "http://www.w3.org/Graphics/SVG/1.1/DTD/svg11.dtd"><svg t="1532613973639" class="icon" style="" viewBox="0 0 1024 1024" version="1.1" xmlns="http://www.w3.org/2000/svg" p-id="9401" xmlns:xlink="http://www.w3.org/1999/xlink" width="200" height="200"><defs><style type="text/css"></style></defs><path d="M952.96 342.784c88.576 255.146667-37.077333 537.173333-280.661333 629.973333-229.504 87.466667-481.578667-24.576-584.021334-251.306666l-0.725333-1.28 0.298667 0.298666c-4.650667-10.282667-9.045333-20.864-13.056-31.616-8.661333-20.864-12.373333-35.669333-12.373334-35.669333v0.042667a314.410667 314.410667 0 0 1-7.936-31.616c-0.426667-2.048-0.682667-4.096-1.024-6.144a511.146667 511.146667 0 0 1 36.266667-318.549334c18.773333-41.258667 50.901333-69.205333 94.293333-66.56 36.437333 2.218667 62.634667 27.477333 63.146667 65.877334 0.256 23.808-8.149333 43.477333-24.618667 73.088a420.181333 420.181333 0 0 0-48.64 125.952c-4.949333 27.434667-16.981333 136.789333 77.909334 241.749333 82.816 91.648 265.514667 117.888 329.258666 5.632 29.653333-74.368 16.597333-166.954667-34.090666-220.117333-118.314667-124.16-231.808-126.634667-218.325334-202.496 16-89.856 134.784-10.24 225.408 23.210666 88.490667 32.682667 173.994667 14.592 196.992-36.608 25.045333-55.893333-24.234667-124.672-115.498666-169.472-26.88-13.141333-57.173333-21.589333-57.856-55.509333-0.938667-45.44 55.04-58.837333 164.266666 1.792l0.426667 0.256c0.64 0.341333 20.736 11.946667 31.274667 19.242667a480.64 480.64 0 0 1 146.346666 165.034666c12.757333 23.594667 23.808 48.512 32.938667 74.794667z m-413.738667-61.013333c-44.245333-11.306667-73.429333-50.218667-65.237333-87.04 8.192-36.778667 50.645333-57.514667 94.890667-46.250667 44.245333 11.264 73.429333 50.218667 65.28 87.04-8.192 36.778667-50.688 57.472-94.933334 46.208z" p-id="9402"></path></svg>