<?xml version="1.0" standalone="no"?><!DOCTYPE svg PUBLIC "-//W3C//DTD SVG 1.1//EN" "http://www.w3.org/Graphics/SVG/1.1/DTD/svg11.dtd"><svg t="1532656360442" class="icon" style="" viewBox="0 0 1024 1024" version="1.1" xmlns="http://www.w3.org/2000/svg" p-id="4724" xmlns:xlink="http://www.w3.org/1999/xlink" width="200" height="200"><defs><style type="text/css"></style></defs><path d="M844.8 665.6c0 98.816-80.384 179.2-179.2 179.2H358.4c-98.816 0-179.2-80.384-179.2-179.2v-51.2h51.2v51.2c0 70.5536 57.4464 128 128 128h307.2c70.5536 0 128-57.4464 128-128v-51.2h51.2v51.2zM286.9248 505.4976a25.4976 25.4976 0 0 1 35.8912-4.7104L384 547.84V172.8h51.2v414.4128l72.0896 55.4496 81.5104-59.648V172.8h51.2v372.736l61.696-45.1072a25.6 25.6 0 0 1 30.208 41.3184l-209.8688 153.6a25.7536 25.7536 0 0 1-30.72-0.3584l-199.7312-153.6a25.6 25.6 0 0 1-4.6592-35.8912zM819.2 0H204.8a204.8 204.8 0 0 0-204.8 204.8v614.4a204.8 204.8 0 0 0 204.8 204.8h614.4a204.8 204.8 0 0 0 204.8-204.8V204.8a204.8 204.8 0 0 0-204.8-204.8z" fill="#7EA0FF" p-id="4725"></path></svg>