<?xml version="1.0" standalone="no"?><!DOCTYPE svg PUBLIC "-//W3C//DTD SVG 1.1//EN" "http://www.w3.org/Graphics/SVG/1.1/DTD/svg11.dtd"><svg t="1532656268595" class="icon" style="" viewBox="0 0 1024 1024" version="1.1" xmlns="http://www.w3.org/2000/svg" p-id="4609" xmlns:xlink="http://www.w3.org/1999/xlink" width="200" height="200"><defs><style type="text/css"></style></defs><path d="M768 629.3504a25.6 25.6 0 0 1 0 51.2h-230.4V819.2a25.6 25.6 0 0 1-51.2 0v-138.6496H256a25.6 25.6 0 0 1 0-51.2h230.4V486.4H256a25.6 25.6 0 0 1 0-51.2h206.08a29481.3696 29481.3696 0 0 0-173.568-212.9408 25.8048 25.8048 0 0 1 1.1776-35.7888 25.344 25.344 0 0 1 35.4816 0.1024c4.9664 4.864 102.144 124.4672 190.6176 233.5744l181.0944-223.9488a25.6 25.6 0 1 1 39.8336 32.1536L569.4464 435.2H768a25.6 25.6 0 0 1 0 51.2h-230.4v142.9504H768zM819.2 0H204.8a204.8 204.8 0 0 0-204.8 204.8v614.4a204.8 204.8 0 0 0 204.8 204.8h614.4a204.8 204.8 0 0 0 204.8-204.8V204.8a204.8 204.8 0 0 0-204.8-204.8z" fill="#FF8D2F" p-id="4610"></path></svg>