<?xml version="1.0" standalone="no"?><!DOCTYPE svg PUBLIC "-//W3C//DTD SVG 1.1//EN" "http://www.w3.org/Graphics/SVG/1.1/DTD/svg11.dtd"><svg t="1543463057414" class="icon" style="" viewBox="0 0 1024 1024" version="1.1" xmlns="http://www.w3.org/2000/svg" p-id="7808" xmlns:xlink="http://www.w3.org/1999/xlink" width="200" height="200"><defs><style type="text/css"></style></defs><path d="M511.936 0C229.216 0 0 229.312 0 512.032S229.216 1024 511.936 1024C794.816 1024 1024 794.752 1024 512.032S794.816 0 511.936 0z m62.912 892.576c-31.904 22.656-71.744 41.088-113.312 27.936-24.896-8-47.136-23.104-68.992-38.912l-287.04-230.56V582.4l284.224 224.768c26.976 16.64 63.36 27.104 96.064 14.72 30.336-11.776 56.864-32.416 82.88-54.336l214.528-182.016-49.28-39.36-224.32 181.344c-22.688 16.96-48.768 30.528-78.4 24.512-27.264-5.6-48.384-26.368-71.808-41.472l-208.384-166.848c-15.808-11.744-31.904-24.16-46.144-38.176l-0.32-45.632 252.928 197.76c22.656 14.016 53.44 27.648 80.256 12.8l28.448-18.112 197.312-160.352c-9.888-11.008-27.392-22.176-40.384-20.544-9.888 1.088-19.008 4.48-28.224 10.976l-140.576 114.4c-12.256 8.096-33.152 17.92-48.544 14.4-38.528-8.832-66.144-41.376-94.528-63.2l-212.16-170.176 297.184-241.92c73.696-52.736 149.44-46.464 216.96 3.2l276.032 223.232c0.192 0.288-0.096 66.4-0.384 66.272l-218.08-174.848c-22.816-18.336-92.8-92.576-156.704-68.48-34.304 12.96-62.496 37.44-92.16 60.128l-212.8 175.264c0.288 0.16 52.416 42.944 52.416 42.944l209.184-171.808c35.744-26.016 85.6-35.232 127.36-16 0 0 20.704 10.816 29.024 18.048 10.24 8.928 262.144 210.976 262.144 210.976-0.384 14.976 0.64 34.016-1.216 48.64l-247.008-197.28c-31.36-19.68-79.744-20.096-110.848 1.472a5798.336 5798.336 0 0 0-197.92 162.56c12.32 16.192 31.36 23.456 52.16 17.056l14.56-7.968 136.384-114.144c19.2-11.68 58.272-17.728 78.304-5.504l22.24 14.4 255.968 204.864v3.52l-317.024 260.064z" p-id="7809"></path></svg>