<?xml version="1.0" standalone="no"?><!DOCTYPE svg PUBLIC "-//W3C//DTD SVG 1.1//EN" "http://www.w3.org/Graphics/SVG/1.1/DTD/svg11.dtd"><svg t="1539573918781" class="icon" style="" viewBox="0 0 1653 1024" version="1.1" xmlns="http://www.w3.org/2000/svg" p-id="17556" xmlns:xlink="http://www.w3.org/1999/xlink" width="322.8515625" height="200"><defs><style type="text/css"></style></defs><path d="M374.429281 783.058824h716.130719a26.771242 26.771242 0 0 1 26.771242 26.771241v26.771242a26.771242 26.771242 0 0 1-26.771242 26.771242h-716.130719a26.771242 26.771242 0 0 1-26.771242-26.771242v-26.771242a26.771242 26.771242 0 0 1 26.771242-26.771241z m133.856209-548.810458H1626.352941a26.771242 26.771242 0 0 1 26.771242 26.771242v113.777778a26.771242 26.771242 0 0 1-26.771242 26.771241H508.28549a26.771242 26.771242 0 0 1-26.771242-26.771241V261.019608a26.771242 26.771242 0 0 1 26.771242-26.771242z m73.620915-214.169935H1559.424837a26.771242 26.771242 0 0 1 26.771241 26.771242v66.928105a26.771242 26.771242 0 0 1-26.771241 26.771242H581.906405a26.771242 26.771242 0 0 1-26.771242-26.771242V46.849673a26.771242 26.771242 0 0 1 26.771242-26.771242z m-207.477124 923.607844h716.130719a26.771242 26.771242 0 0 1 26.771242 26.771241v26.771242a26.771242 26.771242 0 0 1-26.771242 26.771242h-716.130719a26.771242 26.771242 0 0 1-26.771242-26.771242v-26.771242a26.771242 26.771242 0 0 1 26.771242-26.771241zM360.675556 181.428706C360.675556 81.237333 279.940183 0 180.337778 0 80.742065 0 0 81.230641 0 181.428706 0 232.307451 20.814641 278.287059 54.345621 311.229072l-7.509333 36.402196c0 15.580863 12.562405 33.858928 28.042875 33.858928h210.917229c15.480471 0 28.042876-18.271373 28.042876-33.865621l-8.071529-35.846693a181.41532 181.41532 0 0 0 54.907817-130.349176z m-180.337778 134.592418a132.865673 132.865673 0 0 1-91.18285-36.107712H271.52732a132.872366 132.872366 0 0 1-91.182849 36.114405z m104.99681-51.179921l-3.40664-15.40685h-50.263007v-11.846275h4.551111l-6.726274-13.546248h-6.184157l-3.145621-11.852967h-79.644444l-3.145621 11.852967h-6.184157l-6.726275 13.546248h4.551111v11.846275h-50.263006l-3.406641 15.40685a134.52549 134.52549 0 0 1-28.779085-83.412497c0-74.330353 59.893961-134.592418 133.775896-134.592418 73.888627 0 133.789281 60.262065 133.789281 134.592418 0 31.503059-10.762039 60.482928-28.792471 83.412497zM195.791477 95.211922l24.308288-17.769412h-30.037334L180.77281 48.703582l-9.282928 28.738928h-30.037333l24.294902 17.769412-9.276235 28.738928 24.294902-17.762719 24.301594 17.762719-9.282928-28.738928z m-79.91885 17.254065l-5.581803-13.385621-3.299556 14.128523-14.369464 1.204706 12.328157 7.522719-3.299556 14.115137 10.915974-9.470327 12.33485 7.522719-5.581804-13.372235 10.922667-9.47702-14.369465 1.204706z m44.861909 28.779085l-9.316392 11.069908-13.338771-5.488104 7.589647 12.334849-9.316393 11.069909 14.00136-3.45349 7.59634 12.334849 1.064157-14.469856 14.001359-3.446797-13.345464-5.488105 1.064157-14.463163z m63.427765 5.106614l-13.291922 5.615268-9.410091-10.982902 1.198013 14.456471-13.298615 5.608575 14.034824 3.319634 1.198013 14.456471 7.475869-12.401778 14.034824 3.319634-9.416785-10.982902 7.47587-12.408471z m30.365281-32.627451l-3.433412-14.081673-5.454641 13.419085-14.382849-1.07085 11.009673 9.369935-5.454641 13.425778L249.066248 127.163399l11.002981 9.369934-3.426719-14.088366 12.254536-7.643189-14.369464-1.07085z" p-id="17557"></path></svg>