<?xml version="1.0" standalone="no"?><!DOCTYPE svg PUBLIC "-//W3C//DTD SVG 1.1//EN" "http://www.w3.org/Graphics/SVG/1.1/DTD/svg11.dtd"><svg t="1539573924105" class="icon" style="" viewBox="0 0 1837 1024" version="1.1" xmlns="http://www.w3.org/2000/svg" p-id="17665" xmlns:xlink="http://www.w3.org/1999/xlink" width="358.7890625" height="200"><defs><style type="text/css"></style></defs><path d="M1837.390071 806.12766h-689.929078c0-83.626667 190.296965-70.641475 228.962042-181.705532 3.413333-38.636028 2.280397-19.572199 2.280398-54.584284-15.926468-8.446184-72.783887-66.400227-77.337419-115.89356-12.505872-1.212823-32.971348-14.488511-38.665078-67.61305-3.413333-28.977021 9.099801-44.66383 17.059404-49.500596C1236.548993 159.359092 1294.54661 3.631206 1490.152397 0c48.897816 0 86.422695 14.488511 101.216227 41.047149 143.287376 20.523574 134.194837 228.184965 113.722099 294.577929 7.959603 4.829504 20.472738 21.736397 17.059405 49.500596-5.686468 53.117277-26.159206 66.400227-38.665078 67.613049-4.553532 48.287773-61.41095 106.234553-77.337419 115.893561 0 35.012085-1.132936 17.153816 2.280397 54.577021C1647.093106 735.486184 1835.080624 722.73339 1837.390071 806.12766zM29.049645 29.049645h726.241135a29.049645 29.049645 0 0 1 29.049646 29.049646v29.049645a29.049645 29.049645 0 0 1-29.049646 29.049646H29.049645a29.049645 29.049645 0 0 1-29.049645-29.049646V58.099291a29.049645 29.049645 0 0 1 29.049645-29.049646z m0 226.950355h726.241135a29.049645 29.049645 0 0 1 29.049646 29.049645v29.049646a29.049645 29.049645 0 0 1-29.049646 29.049645H29.049645a29.049645 29.049645 0 0 1-29.049645-29.049645v-29.049646a29.049645 29.049645 0 0 1 29.049645-29.049645zM29.049645 482.950355h726.241135a29.049645 29.049645 0 0 1 29.049646 29.049645v29.049645a29.049645 29.049645 0 0 1-29.049646 29.049646H29.049645a29.049645 29.049645 0 0 1-29.049645-29.049646v-29.049645a29.049645 29.049645 0 0 1 29.049645-29.049645z m0 226.950354h726.241135a29.049645 29.049645 0 0 1 29.049646 29.049646v29.049645a29.049645 29.049645 0 0 1-29.049646 29.049645H29.049645a29.049645 29.049645 0 0 1-29.049645-29.049645v-29.049645a29.049645 29.049645 0 0 1 29.049645-29.049646zM29.049645 936.851064h1772.028369a29.049645 29.049645 0 0 1 29.049646 29.049645v29.049646a29.049645 29.049645 0 0 1-29.049646 29.049645H29.049645a29.049645 29.049645 0 0 1-29.049645-29.049645v-29.049646a29.049645 29.049645 0 0 1 29.049645-29.049645z"  p-id="17666"></path></svg>