<?xml version="1.0" standalone="no"?><!DOCTYPE svg PUBLIC "-//W3C//DTD SVG 1.1//EN" "http://www.w3.org/Graphics/SVG/1.1/DTD/svg11.dtd"><svg t="1539599474610" class="icon" style="" viewBox="0 0 1024 1024" version="1.1" xmlns="http://www.w3.org/2000/svg" p-id="12570" xmlns:xlink="http://www.w3.org/1999/xlink" width="200" height="200"><defs><style type="text/css"></style></defs><path d="M256 102.4v102.4h512V102.4h204.8a51.2 51.2 0 0 1 51.2 51.2v819.2a51.2 51.2 0 0 1-51.2 51.2H51.2a51.2 51.2 0 0 1-51.2-51.2V153.6a51.2 51.2 0 0 1 51.2-51.2h204.8z m153.6 409.6c0-56.4736-45.9264-102.4-102.4-102.4s-102.4 45.9264-102.4 102.4 45.9264 102.4 102.4 102.4 102.4-45.9264 102.4-102.4z m51.2512 302.5408a153.856 153.856 0 0 0-153.6-148.9408 153.856 153.856 0 0 0-153.6 148.9408c13.1072 12.032 67.7888 32.3584 153.6 32.3584s140.4928-20.3264 153.6-32.3584zM614.4 512h256V460.8h-256v51.2z m0 153.6h256v-51.2h-256v51.2z m0 153.6h153.6v-51.2h-153.6v51.2z m102.4-665.6H307.2V0h409.6v153.6z" p-id="12571"></path></svg>