<?xml version="1.0" standalone="no"?><!DOCTYPE svg PUBLIC "-//W3C//DTD SVG 1.1//EN" "http://www.w3.org/Graphics/SVG/1.1/DTD/svg11.dtd"><svg t="1532588052561" class="icon" style="" viewBox="0 0 1024 1024" version="1.1" xmlns="http://www.w3.org/2000/svg" p-id="4330" xmlns:xlink="http://www.w3.org/1999/xlink" width="200" height="200"><defs><style type="text/css"></style></defs><path d="M1007.64929 551.479872c-35.039876 34.840786-43.231016 71.18897-25.511988 115.415437a56.968241 56.968241 0 0 1-31.570018 73.947791c-42.008034 17.064875-61.661081 45.762306-61.83173 90.671369a57.281097 57.281097 0 0 1-57.167331 57.167331c-44.937504 0.170649-73.606494 19.795255-90.671368 61.860171a56.968241 56.968241 0 0 1-73.947791 31.570018c-44.226467-17.775911-80.574651-9.584771-115.415437 25.483547a56.114997 56.114997 0 0 1-79.067254 0c-34.869228-35.068318-71.18897-43.231016-115.415437-25.511988a56.996682 56.996682 0 0 1-73.947791-31.570019c-17.064875-42.036475-45.762306-61.661081-90.671368-61.831729a57.281097 57.281097 0 0 1-57.167331-57.167331c-0.170649-44.909062-19.823696-73.606494-61.860171-90.671369a56.968241 56.968241 0 0 1-31.570019-73.947791c17.74747-44.226467 9.55633-80.574651-25.483546-115.415437a56.114997 56.114997 0 0 1 0-79.067253c35.039876-34.840786 43.231016-71.18897 25.511988-115.415437a56.996682 56.996682 0 0 1 31.570018-73.947791c42.008034-17.064875 61.661081-45.790748 61.83173-90.671368a57.281097 57.281097 0 0 1 57.167331-57.167331c44.937504-0.170649 73.606494-19.823696 90.671368-61.860172a56.996682 56.996682 0 0 1 73.947791-31.570018c44.226467 17.74747 80.546209 9.584771 115.415437-25.483547a56.143438 56.143438 0 0 1 79.067254 0c34.840786 35.068318 71.18897 43.231016 115.415437 25.511988a56.968241 56.968241 0 0 1 73.947791 31.541577c17.064875 42.036475 45.762306 61.689523 90.671368 61.860172 31.59846 0.113766 57.053565 25.568871 57.167331 57.167331 0.170649 44.909062 19.823696 73.606494 61.860171 90.642926a56.996682 56.996682 0 0 1 31.570019 73.976233c-17.775911 44.226467-9.55633 80.574651 25.483546 115.415437a56.114997 56.114997 0 0 1 0 79.067253" fill="#FE7652" p-id="4331"></path></svg>