<?xml version="1.0" standalone="no"?><!DOCTYPE svg PUBLIC "-//W3C//DTD SVG 1.1//EN" "http://www.w3.org/Graphics/SVG/1.1/DTD/svg11.dtd"><svg t="1534145726170" class="icon" style="" viewBox="0 0 1024 1024" version="1.1" xmlns="http://www.w3.org/2000/svg" p-id="9031" xmlns:xlink="http://www.w3.org/1999/xlink" width="200" height="200"><defs><style type="text/css"></style></defs><path d="M818.8672 851.74272c-77.20448-12.36992-240.25088-278.81472-352.87552-270.11072-97.1008 7.49056-214.17984 105.4208-267.76064 118.9632-39.79776 10.0352-80.62464-25.78944-95.68768-65.9712-13.84448-36.96128-4.95616-65.62304 21.376-73.45664 23.72608-7.0656 24.71936 10.8288 82.83136 4.47488 60.42112-6.6048 140.09344-21.67808 205.19424-56.35584 24.10496-12.8512 30.9248-57.28256 10.30144-78.336-53.76-54.87616-158.43328-67.7888-177.21856-139.99104-11.45344-44.08832 44.65664-68.7616 74.34752-27.4944 32.53248 45.22496 62.34624 75.8272 129.16736 120.60672 47.81056 26.94144 83.11296 24.33024 111.75424-4.2496 61.71648-61.57824 122.58816-148.61824 172.80512-179.9936 55.54688-34.7136 92.14464-3.3792 91.13088 25.58464-1.0752 30.8736-35.54816 37.0432-70.1952 57.7536-54.61504 32.5888-154.14784 88.2944-157.4656 189.50144-3.36384 101.95968 156.34944 225.2544 216.1408 203.02848 59.79648-22.26688 69.9392 26.2144 70.38464 63.37536 0.44544 37.1712-14.94016 120.56576-64.2304 112.67072M507.0592 254.2592c30.03904 2.00192 52.77184 27.9552 50.76992 58.0096-1.98656 30.02368-28.50304 61.29664-58.54208 59.2896-30.03904-1.96096-52.20352-36.47488-50.21696-66.5088 1.9968-30.02368 27.9552-52.77184 57.98912-50.7904M768.04096 0H255.95904C114.6112 0 0 114.5856 0 255.95904v512.08192C0 909.40928 114.6112 1024 255.95904 1024h512.08192C909.40928 1024 1024 909.4144 1024 768.04096V255.95904C1024 114.59072 909.4144 0 768.04096 0" p-id="9032"></path></svg>