<?xml version="1.0" standalone="no"?><!DOCTYPE svg PUBLIC "-//W3C//DTD SVG 1.1//EN" "http://www.w3.org/Graphics/SVG/1.1/DTD/svg11.dtd"><svg t="1553578602779" class="icon" style="" viewBox="0 0 1024 1024" version="1.1" xmlns="http://www.w3.org/2000/svg" p-id="2505" xmlns:xlink="http://www.w3.org/1999/xlink" width="200" height="200"><defs><style type="text/css"></style></defs><path d="M340.553143 444.123429a655.872 655.872 0 0 1 122.294857 64.950857l-21.650286 33.938285a526.994286 526.994286 0 0 0-121.124571-69.046857l20.48-29.842285z m53.833143-81.92a593.92 593.92 0 0 1 120.539428 65.536l-21.650285 33.353142A513.316571 513.316571 0 0 0 374.491429 392.045714l19.894857-29.842285z m161.499428 0h41.545143v122.88a448.365714 448.365714 0 0 1-11.702857 88.356571h217.673143v40.96H571.684571c-4.096 9.362286-8.192 18.724571-12.873142 26.916571 84.845714 38.034286 162.084571 78.994286 231.716571 122.88l-28.672 31.597715A1897.910857 1897.910857 0 0 0 537.746286 672.914286c-3.510857 4.096-6.436571 8.192-9.362286 11.702857-42.715429 46.226286-112.347429 82.505143-208.896 108.251428l-23.990857-37.449142c97.133714-25.161143 164.425143-58.514286 203.044571-100.059429 10.532571-12.873143 19.309714-26.331429 26.331429-40.96H292.571429v-40.96h249.270857c8.192-26.916571 12.873143-56.758857 14.043428-88.356571v-122.88zM314.806857 292.571429H760.685714v26.331428c-8.777143 35.108571-20.48 69.632-34.523428 104.155429l-39.789715-11.117715A430.811429 430.811429 0 0 0 716.8 331.776H314.806857V292.571429zM512 950.857143A438.857143 438.857143 0 1 0 512 73.142857a438.857143 438.857143 0 0 0 0 877.714286z m0 36.571428a475.428571 475.428571 0 1 1 0-950.857142 475.428571 475.428571 0 0 1 0 950.857142z" fill="#666666" p-id="2506"></path></svg>