<?xml version="1.0" standalone="no"?><!DOCTYPE svg PUBLIC "-//W3C//DTD SVG 1.1//EN" "http://www.w3.org/Graphics/SVG/1.1/DTD/svg11.dtd"><svg t="1532656411951" class="icon" style="" viewBox="0 0 1024 1024" version="1.1" xmlns="http://www.w3.org/2000/svg" p-id="4839" xmlns:xlink="http://www.w3.org/1999/xlink" width="200" height="200"><defs><style type="text/css"></style></defs><path d="M819.2 0a204.8 204.8 0 0 1 204.8 204.8v614.4a204.8 204.8 0 0 1-204.8 204.8H204.8a204.8 204.8 0 0 1-204.8-204.8V204.8a204.8 204.8 0 0 1 204.8-204.8h614.4z m25.6 665.6V409.6a25.6 25.6 0 0 0-25.6-25.6h-90.0608l-197.12-246.4256a26.5728 26.5728 0 0 0-40.0384 0L294.8608 384H204.8a25.6 25.6 0 0 0-25.6 25.6v256c0 98.816 80.384 179.2 179.2 179.2h307.2c98.816 0 179.2-80.384 179.2-179.2z m-614.4 0V435.2h563.2V665.6c0 70.5536-57.4464 128-128 128H358.4A128.1536 128.1536 0 0 1 230.4 665.6zM512 194.56l151.5008 189.44H360.4992L512 194.56z" fill="#24CB92" p-id="4840"></path></svg>