<?xml version="1.0" standalone="no"?><!DOCTYPE svg PUBLIC "-//W3C//DTD SVG 1.1//EN" "http://www.w3.org/Graphics/SVG/1.1/DTD/svg11.dtd"><svg t="1532602344454" class="icon" style="" viewBox="0 0 1024 1024" version="1.1" xmlns="http://www.w3.org/2000/svg" p-id="7091" xmlns:xlink="http://www.w3.org/1999/xlink" width="200" height="200"><defs><style type="text/css"></style></defs><path d="M128 112c-35.328 0-64 25.088-64 56v560c0 30.912 28.672 56 64 56h768c35.328 0 64-25.088 64-56v-560c0-30.912-28.672-56-64-56H128z m0-56h768c70.72 0 128 50.176 128 112v560c0 61.824-57.28 112-128 112H128c-70.72 0-128-50.176-128-112v-560c0-61.824 57.28-112 128-112z m395.264 421.76h-22.528L512 474.112l11.264 3.648z m489.472-168v59.52L512 533.952 11.264 369.344v-59.52L512 474.048l500.736-164.352z" p-id="7092"></path></svg>