<?xml version="1.0" standalone="no"?><!DOCTYPE svg PUBLIC "-//W3C//DTD SVG 1.1//EN" "http://www.w3.org/Graphics/SVG/1.1/DTD/svg11.dtd"><svg t="1538969794240" class="icon" style="" viewBox="0 0 1024 1024" version="1.1" xmlns="http://www.w3.org/2000/svg" p-id="7998" xmlns:xlink="http://www.w3.org/1999/xlink" width="200" height="200"><defs><style type="text/css"></style></defs><path d="M64 121.408l256-50.88v825.088l-256 50.816V121.408zM1012.288 7.232a32.32 32.32 0 0 0-26.56-6.592L672 62.976 358.272 0.64a32 32 0 0 0-12.544 0l-320 63.552A31.808 31.808 0 0 0 0 95.296v889.856a31.68 31.68 0 0 0 32 31.808 34.88 34.88 0 0 0 6.272-0.576l313.728-62.336 153.728 30.592 12.544-62.4L384 895.616V70.528l256 50.88v367.68h64V121.408l256-50.88v468.224h64V31.744a31.552 31.552 0 0 0-11.712-24.512z m-362.88 771.84c0-70.144 57.344-127.168 128-127.168 70.528 0 128 57.024 128 127.104a127.68 127.68 0 0 1-128 127.168c-70.656 0-128-57.024-128-127.168m320 0c0-105.088-86.208-190.656-192-190.656-105.92 0-192 85.568-192 190.72 0 105.088 86.08 190.656 192 190.656 41.344 0 79.488-13.376 110.848-35.584L978.752 1024l45.248-44.992-90.496-89.792c22.4-31.168 35.84-69.056 35.84-110.208" p-id="7999"></path></svg>
