<?xml version="1.0" standalone="no"?><!DOCTYPE svg PUBLIC "-//W3C//DTD SVG 1.1//EN" "http://www.w3.org/Graphics/SVG/1.1/DTD/svg11.dtd"><svg t="1536139276866" class="icon" style="" viewBox="0 0 1024 1024" version="1.1" xmlns="http://www.w3.org/2000/svg" p-id="10709" xmlns:xlink="http://www.w3.org/1999/xlink" width="200" height="200"><defs><style type="text/css"></style></defs><path d="M256 85.333333h512a170.666667 170.666667 0 0 1 170.666667 170.666667v512a170.666667 170.666667 0 0 1-170.666667 170.666667H256a170.666667 170.666667 0 0 1-170.666667-170.666667V256a170.666667 170.666667 0 0 1 170.666667-170.666667z m0 42.666667A128 128 0 0 0 128 256v512A128 128 0 0 0 256 896h512A128 128 0 0 0 896 768V256A128 128 0 0 0 768 128H256z m311.125333 392.277333L411.306667 356.010667l30.890666-29.354667 185.429334 195.242667-186.197334 176.298666-29.354666-31.061333 155.136-146.858667z" fill="#999999" p-id="10710"></path></svg>