<?xml version="1.0" standalone="no"?><!DOCTYPE svg PUBLIC "-//W3C//DTD SVG 1.1//EN" "http://www.w3.org/Graphics/SVG/1.1/DTD/svg11.dtd"><svg t="1534402069499" class="icon" style="" viewBox="0 0 1024 1024" version="1.1" xmlns="http://www.w3.org/2000/svg" p-id="6607" xmlns:xlink="http://www.w3.org/1999/xlink" width="200" height="200"><defs><style type="text/css"></style></defs><path d="M146.285714 73.142857a73.142857 73.142857 0 0 0-73.142857 73.142857v731.428572a73.142857 73.142857 0 0 0 73.142857 73.142857h731.428572a73.142857 73.142857 0 0 0 73.142857-73.142857V146.285714a73.142857 73.142857 0 0 0-73.142857-73.142857H146.285714z m0-73.142857h731.428572a146.285714 146.285714 0 0 1 146.285714 146.285714v731.428572a146.285714 146.285714 0 0 1-146.285714 146.285714H146.285714a146.285714 146.285714 0 0 1-146.285714-146.285714V146.285714a146.285714 146.285714 0 0 1 146.285714-146.285714z m403.675429 73.142857H292.571429v219.428572h438.857142V73.142857H623.104v81.92h-73.142857V73.142857zM219.428571 0h585.142858v292.571429a73.142857 73.142857 0 0 1-73.142858 73.142857H292.571429a73.142857 73.142857 0 0 1-73.142858-73.142857V0z" fill="#333333" p-id="6608"></path></svg>