<?xml version="1.0" standalone="no"?><!DOCTYPE svg PUBLIC "-//W3C//DTD SVG 1.1//EN" "http://www.w3.org/Graphics/SVG/1.1/DTD/svg11.dtd"><svg t="1534411417454" class="icon" style="" viewBox="0 0 1024 1024" version="1.1" xmlns="http://www.w3.org/2000/svg" p-id="7338" xmlns:xlink="http://www.w3.org/1999/xlink" width="200" height="200"><defs><style type="text/css"></style></defs><path d="M800 192h32c35.2 0 64 28.8 64 64v640c0 35.2-28.8 64-64 64H192c-35.2 0-64-28.8-64-64V256c0-35.2 28.8-64 64-64h32v32c0 54.4 41.6 96 96 96h32c54.4 0 96-41.6 96-96V192h128v32c0 54.4 41.6 96 96 96h32c54.4 0 96-41.6 96-96V192zM256 576h64c19.2 0 32-12.8 32-32s-12.8-32-32-32H256c-19.2 0-32 12.8-32 32s12.8 32 32 32z m0 160h64c19.2 0 32-12.8 32-32s-12.8-32-32-32H256c-19.2 0-32 12.8-32 32s12.8 32 32 32z m224-160h64c19.2 0 32-12.8 32-32s-12.8-32-32-32h-64c-19.2 0-32 12.8-32 32s12.8 32 32 32z m0 160h64c19.2 0 32-12.8 32-32s-12.8-32-32-32h-64c-19.2 0-32 12.8-32 32s12.8 32 32 32z m224-160h64c19.2 0 32-12.8 32-32s-12.8-32-32-32h-64c-19.2 0-32 12.8-32 32s12.8 32 32 32z" fill="#CCCCCC" p-id="7339"></path><path d="M320 64h32c19.2 0 32 12.8 32 32v128c0 19.2-12.8 32-32 32h-32c-19.2 0-32-12.8-32-32V96c0-19.2 12.8-32 32-32z m352 0h32c19.2 0 32 12.8 32 32v128c0 19.2-12.8 32-32 32h-32c-19.2 0-32-12.8-32-32V96c0-19.2 12.8-32 32-32z" fill="#DDDDDD" p-id="7340"></path></svg>