<?xml version="1.0" standalone="no"?><!DOCTYPE svg PUBLIC "-//W3C//DTD SVG 1.1//EN" "http://www.w3.org/Graphics/SVG/1.1/DTD/svg11.dtd"><svg t="1534329461551" class="icon" style="" viewBox="0 0 1024 1024" version="1.1" xmlns="http://www.w3.org/2000/svg" p-id="4564" xmlns:xlink="http://www.w3.org/1999/xlink" width="200" height="200"><defs><style type="text/css"></style></defs><path d="M597.333333 514.730667l44.544 0.597333a42.666667 42.666667 0 0 1 27.434667 74.88L513.536 725.333333l-158.890667-138.496A42.666667 42.666667 0 0 1 383.232 512l43.434667 0.554667V298.666667a42.666667 42.666667 0 0 1 42.666666-42.666667h85.333334a42.666667 42.666667 0 0 1 42.666666 42.666667v216.064zM213.333333 42.666667h597.333334a170.666667 170.666667 0 0 1 170.666666 170.666666v597.333334a170.666667 170.666667 0 0 1-170.666666 170.666666H213.333333a170.666667 170.666667 0 0 1-170.666666-170.666666V213.333333a170.666667 170.666667 0 0 1 170.666666-170.666666z m42.666667 128a85.333333 85.333333 0 0 0-85.333333 85.333333v405.333333A64 64 0 0 0 234.666667 725.333333h41.173333a42.666667 42.666667 0 0 1 35.498667 18.986667l59.989333 90.026667a42.666667 42.666667 0 0 0 35.498667 18.986666h210.346666a42.666667 42.666667 0 0 0 35.498667-18.986666l59.989333-90.026667a42.666667 42.666667 0 0 1 35.498667-18.986667h41.173333a64 64 0 0 0 64-64V256a85.333333 85.333333 0 0 0-85.333333-85.333333H256z" fill="#BBBBBB" p-id="4565"></path></svg>