<?xml version="1.0" standalone="no"?><!DOCTYPE svg PUBLIC "-//W3C//DTD SVG 1.1//EN" "http://www.w3.org/Graphics/SVG/1.1/DTD/svg11.dtd"><svg t="1534329474421" class="icon" style="" viewBox="0 0 1024 1024" version="1.1" xmlns="http://www.w3.org/2000/svg" p-id="4749" xmlns:xlink="http://www.w3.org/1999/xlink" width="200" height="200"><defs><style type="text/css"></style></defs><path d="M112.170667 384H911.786667a42.666667 42.666667 0 0 1 42.538666 39.68l26.538667 374.954667A170.666667 170.666667 0 0 1 810.666667 981.333333H213.333333a170.666667 170.666667 0 0 1-170.24-182.698666l26.496-374.997334A42.666667 42.666667 0 0 1 112.213333 384z m402.517333 88.192l-166.912 227.2a20.608 20.608 0 0 0 16.554667 32.768h146.133333l-34.261333 154.112a8.234667 8.234667 0 0 0 14.336 7.082667l184.405333-220.16a20.608 20.608 0 0 0-15.786667-33.792h-148.693333l19.029333-161.365334a8.234667 8.234667 0 0 0-14.805333-5.845333zM216.32 298.666667A298.752 298.752 0 0 1 807.68 298.666667h-130.389333a170.752 170.752 0 0 0-330.581334 0H216.32z" fill="#BBBBBB" p-id="4750"></path></svg>