<?xml version="1.0" standalone="no"?><!DOCTYPE svg PUBLIC "-//W3C//DTD SVG 1.1//EN" "http://www.w3.org/Graphics/SVG/1.1/DTD/svg11.dtd"><svg t="1534929051681" class="icon" style="" viewBox="0 0 1024 1024" version="1.1" xmlns="http://www.w3.org/2000/svg" p-id="18283" xmlns:xlink="http://www.w3.org/1999/xlink" width="200" height="200"><defs><style type="text/css"></style></defs><path d="M512 1024c282.763636 0 512-229.236364 512-512S794.763636 0 512 0 0 229.236364 0 512s229.236364 512 512 512zM249.960727 394.949818l-9.658182-67.618909c-0.081455-0.628364-1.105455-1.512727-1.710545-1.512727H162.909091v-23.272727h75.682909c12.194909 0 23.028364 9.413818 24.750545 21.492363l3.805091 26.624c9.297455-8.238545 21.725091-13.207273 35.793455-13.207273h481.501091c33.082182 0 55.121455 27.182545 48.256 59.531637l-54.690909 257.687273C774.202182 672.558545 756.875636 686.545455 738.594909 686.545455H316.869818c-18.781091 0-35.293091-14.766545-37.434182-33.489455l-29.288727-256.302545a59.636364 59.636364 0 0 1-0.186182-1.803637z m23.296-0.942545v0.093091l29.300364 256.314181c0.802909 6.981818 7.377455 12.858182 14.312727 12.858182h421.725091c7.307636 0 15.127273-6.318545 16.64-13.428363l54.690909-257.698909c3.805091-17.861818-7.191273-31.418182-25.483636-31.418182H302.941091c-18.199273 0-31.022545 13.800727-29.824 31.697454l0.221091 1.570909h-0.081455zM686.545455 791.272727a34.909091 34.909091 0 1 1 0-69.818182 34.909091 34.909091 0 0 1 0 69.818182z m-302.545455 0a34.909091 34.909091 0 1 1 0-69.818182 34.909091 34.909091 0 0 1 0 69.818182z m46.545455-256a23.272727 23.272727 0 1 1 0-46.545454 23.272727 23.272727 0 0 1 0 46.545454z m104.727272 0a23.272727 23.272727 0 1 1 0-46.545454 23.272727 23.272727 0 0 1 0 46.545454z m104.727273 0a23.272727 23.272727 0 1 1 0-46.545454 23.272727 23.272727 0 0 1 0 46.545454z" fill="#D3D3D3" p-id="18284"></path></svg>