<?xml version="1.0" standalone="no"?><!DOCTYPE svg PUBLIC "-//W3C//DTD SVG 1.1//EN" "http://www.w3.org/Graphics/SVG/1.1/DTD/svg11.dtd"><svg t="1532602769114" class="icon" style="" viewBox="0 0 1024 1024" version="1.1" xmlns="http://www.w3.org/2000/svg" p-id="7551" xmlns:xlink="http://www.w3.org/1999/xlink" width="200" height="200"><defs><style type="text/css"></style></defs><path d="M492.448 650.656v-79.232h-97.792a19.68 19.68 0 0 1-19.52-19.808c0-10.944 8.736-19.808 19.52-19.808h82.176l-79.2-128.16a19.968 19.968 0 0 1 6.208-27.296 19.424 19.424 0 0 1 26.944 6.272l81.312 131.616 81.088-131.584a19.424 19.424 0 0 1 26.944-6.304 19.968 19.968 0 0 1 6.24 27.296l-78.976 128.16h81.92c10.816 0 19.584 8.864 19.584 19.84a19.68 19.68 0 0 1-19.552 19.776H531.52v79.232h97.792c10.784 0 19.52 8.864 19.52 19.84a19.68 19.68 0 0 1-19.52 19.776H531.52v217.92H492.48v-217.92h-97.792a19.68 19.68 0 0 1-19.52-19.808c0-10.944 8.736-19.808 19.52-19.808h97.792zM394.656 135.616v79.232h234.688V135.616h-234.688z m273.792 19.84h174.848c11.424 0 20.704 8.832 20.704 19.776v732.96c0 10.944-9.28 19.808-20.704 19.808H180.704A20.288 20.288 0 0 1 160 908.192V175.232c0-10.944 9.28-19.808 20.704-19.808h174.848v-19.808A39.36 39.36 0 0 1 394.656 96h234.688a39.36 39.36 0 0 1 39.104 39.616v19.84z m0 39.584v19.84a39.36 39.36 0 0 1-39.104 39.584h-234.688a39.36 39.36 0 0 1-39.104-39.616v-19.808H199.104v693.344h625.792V195.04h-156.48z" fill="#BBBBBB" p-id="7552"></path></svg>