<?xml version="1.0" standalone="no"?><!DOCTYPE svg PUBLIC "-//W3C//DTD SVG 1.1//EN" "http://www.w3.org/Graphics/SVG/1.1/DTD/svg11.dtd"><svg t="1550552980493" class="icon" style="" viewBox="0 0 1024 1024" version="1.1" xmlns="http://www.w3.org/2000/svg" p-id="9312" xmlns:xlink="http://www.w3.org/1999/xlink" width="200" height="200"><defs><style type="text/css"></style></defs><path d="M147.2 198.528A159.36 159.36 0 0 1 227.136 56.896l83.2-48a64 64 0 0 1 87.04 22.912l128.64 222.72a63.552 63.552 0 0 1-23.68 86.912l-83.2 48a160.512 160.512 0 0 1-218.88-59.136l-14.976-25.984A542.464 542.464 0 0 0 249.728 672a542.464 542.464 0 0 0 286.144 239.68l-14.976-25.984a159.936 159.936 0 0 1 58.24-219.136l83.2-48a64 64 0 0 1 87.04 22.912l128.64 222.72a63.552 63.552 0 0 1-23.68 86.912l-83.2 48a160 160 0 0 1-162.112-1.472A606.656 606.656 0 0 1 194.304 704 606.656 606.656 0 0 1 147.2 198.528z m675.072 697.152l-128-221.696-83.136 48a95.936 95.936 0 0 0-34.816 131.712l31.36 54.336c26.624 46.08 85.76 62.08 131.456 35.648l83.2-48z m-480-831.36l-83.136 48a95.936 95.936 0 0 0-34.816 131.648l31.36 54.4c26.624 46.08 85.76 62.08 131.456 35.648l83.2-48-128-221.696z" p-id="9313"></path></svg>