<?xml version="1.0" standalone="no"?><!DOCTYPE svg PUBLIC "-//W3C//DTD SVG 1.1//EN" "http://www.w3.org/Graphics/SVG/1.1/DTD/svg11.dtd"><svg t="1532602532890" class="icon" style="" viewBox="0 0 1024 1024" version="1.1" xmlns="http://www.w3.org/2000/svg" p-id="7206" xmlns:xlink="http://www.w3.org/1999/xlink" width="200" height="200"><defs><style type="text/css"></style></defs><path d="M296 328v448h448v-448h-448z m0-40h448c22.08 0 40 17.92 40 40v448c0 22.08-17.92 40-40 40h-448c-22.08 0-40-17.92-40-40v-448C256 305.92 273.92 288 296 288zM576 200V240h-120V200H576z m-376-64v768h640v-768h-640z m0-40h640c22.08 0 40 17.92 40 40v768c0 22.08-17.92 40-40 40h-640c-22.08 0-40-17.92-40-40v-768C160 113.92 177.92 96 200 96z" fill="#BBBBBB" p-id="7207"></path></svg>