<?xml version="1.0" standalone="no"?><!DOCTYPE svg PUBLIC "-//W3C//DTD SVG 1.1//EN" "http://www.w3.org/Graphics/SVG/1.1/DTD/svg11.dtd"><svg t="1534830369120" class="icon" style="" viewBox="0 0 1024 1024" version="1.1" xmlns="http://www.w3.org/2000/svg" p-id="7724" xmlns:xlink="http://www.w3.org/1999/xlink" width="200" height="200"><defs><style type="text/css"></style></defs><path d="M246.144 0h531.712c85.568 0 116.608 8.96 147.904 25.6 31.36 16.768 55.872 41.344 72.576 72.64 16.768 31.296 25.664 62.336 25.664 147.84v531.84c0 85.504-8.96 116.544-25.6 147.84a174.464 174.464 0 0 1-72.64 72.576c-31.296 16.768-62.336 25.664-147.84 25.664h-531.84c-85.504 0-116.544-8.96-147.84-25.6A174.464 174.464 0 0 1 25.6 925.696C8.896 894.464 0 863.424 0 777.92v-531.84c0-85.504 8.96-116.544 25.6-147.84A174.464 174.464 0 0 1 98.304 25.6C129.536 8.896 160.576 0 246.08 0z m45.952 128c-57.088 0-77.76 5.952-98.56 17.088-20.928 11.136-37.312 27.52-48.448 48.384-11.136 20.864-17.088 41.6-17.088 98.56v439.872c0 57.088 5.952 77.76 17.088 98.56 11.136 20.928 27.52 37.312 48.384 48.448 20.864 11.136 41.6 17.088 98.56 17.088h439.872c57.088 0 77.76-5.952 98.56-17.088 20.928-11.136 37.312-27.52 48.448-48.384 11.136-20.864 17.088-41.6 17.088-98.56V292.032c0-57.088-5.952-77.76-17.088-98.56a116.288 116.288 0 0 0-48.384-48.448c-20.864-11.136-41.6-17.088-98.56-17.088H292.032z m43.456 339.84l368 92.032c23.872 6.016 32.064 10.112 40.192 16.32a57.6 57.6 0 0 1 18.176 23.296c4.096 9.344 6.08 18.304 6.08 42.88v49.6c0 27.648-2.944 38.144-8.576 48.64a58.176 58.176 0 0 1-24.192 24.128c-10.432 5.568-20.864 8.576-48.576 8.576H338.048c-28.544 0-38.848-3.008-49.28-8.576a58.176 58.176 0 0 1-24.192-24.192c-5.632-10.432-8.576-20.8-8.576-49.28V529.92a64 64 0 0 1 79.552-62.08zM672 448a96 96 0 1 1 0-192 96 96 0 0 1 0 192z" fill="#EEEEEE" p-id="7725"></path></svg>