<?xml version="1.0" standalone="no"?><!DOCTYPE svg PUBLIC "-//W3C//DTD SVG 1.1//EN" "http://www.w3.org/Graphics/SVG/1.1/DTD/svg11.dtd"><svg t="1533200321069" class="icon" style="" viewBox="0 0 1024 1024" version="1.1" xmlns="http://www.w3.org/2000/svg" p-id="3794" xmlns:xlink="http://www.w3.org/1999/xlink" width="200" height="200"><defs><style type="text/css"></style></defs><path d="M195.895652 899.33913c-17.808696 17.808696-48.973913 17.808696-66.782609 0-17.808696-17.808696-17.808696-48.973913 0-66.782608 17.808696-17.808696 48.973913-17.808696 66.782609 0 17.808696 13.356522 17.808696 44.521739 0 66.782608z m756.869565-658.921739l-173.634782 173.634783-97.947826 4.452174-75.686957-75.686957 4.452174-97.947826 173.634783-173.634782L712.347826 0l-182.53913 44.521739-102.4 102.4c-35.617391 35.617391-53.426087 84.591304-53.426087 133.565218l4.452174 151.373913L44.521739 756.869565c-62.330435 62.330435-62.330435 160.278261 0 218.156522 62.330435 62.330435 160.278261 62.330435 218.156522 0l329.460869-329.46087 151.373913 4.452174c48.973913 0 97.947826-17.808696 133.565218-53.426087l102.4-102.4L1024 311.652174l-71.234783-71.234783z" fill="#5C7096" p-id="3795"></path></svg>