<?xml version="1.0" standalone="no"?><!DOCTYPE svg PUBLIC "-//W3C//DTD SVG 1.1//EN" "http://www.w3.org/Graphics/SVG/1.1/DTD/svg11.dtd"><svg t="1538019422889" class="icon" style="" viewBox="0 0 1024 1024" version="1.1" xmlns="http://www.w3.org/2000/svg" p-id="11313" xmlns:xlink="http://www.w3.org/1999/xlink" width="200" height="200"><defs><style type="text/css"></style></defs><path d="M512 0c5.2736 0 10.5472 0.8192 15.616 2.4064l409.6 130.9184c21.1968 6.8096 35.584 26.5216 35.584 48.7936V497.664a505.2928 505.2928 0 0 1-307.6096 465.5104l-133.12 56.7296a51.5584 51.5584 0 0 1-40.1408 0l-133.12-56.7296A505.2928 505.2928 0 0 1 51.2 497.664V182.1184c0-22.272 14.3872-41.984 35.584-48.7936l409.6-130.9184C501.4528 0.8192 506.7264 0 512 0z m0 51.2L102.4 182.1184V497.664a454.8096 454.8096 0 0 0 276.48 418.4064L512 972.8l133.12-56.7296A454.8096 454.8096 0 0 0 921.6 497.664V182.1184L512 51.2z m-25.6 545.7408v-358.4h51.2v358.4h-51.2z m0 153.6v-51.2h51.2v51.2h-51.2z" fill="#5facfb" p-id="11314"></path></svg>