<?xml version="1.0" standalone="no"?><!DOCTYPE svg PUBLIC "-//W3C//DTD SVG 1.1//EN" "http://www.w3.org/Graphics/SVG/1.1/DTD/svg11.dtd"><svg t="1538018944705" class="icon" style="" viewBox="0 0 1024 1024" version="1.1" xmlns="http://www.w3.org/2000/svg" p-id="11171" xmlns:xlink="http://www.w3.org/1999/xlink" width="200" height="200"><defs><style type="text/css"></style></defs><path d="M537.6 894.208l86.6816-57.8048c16.896-11.264 36.5568-17.2032 56.832-17.2032H972.8V102.4h-298.9056l-129.536 43.1616a103.5264 103.5264 0 0 1-6.7584 2.048v746.5984z m-51.2 0V147.5584a103.5264 103.5264 0 0 1-6.7584-1.9968L350.1056 102.4H51.2v716.8h291.6864c20.2752 0 39.936 5.9392 56.832 17.2032L486.4 894.208zM972.8 51.2a51.2 51.2 0 0 1 51.2 51.2v716.8a51.2 51.2 0 0 1-51.2 51.2h-291.6864c-10.1376 0-20.0192 3.0208-28.416 8.6016l-112.2816 74.8544a51.2 51.2 0 0 1-56.832 0l-112.2816-74.8544A51.3536 51.3536 0 0 0 342.8864 870.4H51.2a51.2 51.2 0 0 1-51.2-51.2V102.4a51.2 51.2 0 0 1 51.2-51.2h298.9056c5.4784 0 10.9568 0.9216 16.1792 2.6112l129.536 43.2128a51.456 51.456 0 0 0 32.3584 0l129.536-43.2128A52.736 52.736 0 0 1 673.8944 51.2H972.8zM153.6 332.8h204.8v-51.2H153.6v51.2z m0 153.6h204.8v-51.2H153.6v51.2z m512-153.6h204.8v-51.2h-204.8v51.2z m0 153.6h204.8v-51.2h-204.8v51.2z m-512 153.6h204.8v-51.2H153.6v51.2z" fill="#5facfb" p-id="11172"></path></svg>