<?xml version="1.0" standalone="no"?><!DOCTYPE svg PUBLIC "-//W3C//DTD SVG 1.1//EN" "http://www.w3.org/Graphics/SVG/1.1/DTD/svg11.dtd"><svg t="1538029900021" class="icon" style="" viewBox="0 0 1024 1024" version="1.1" xmlns="http://www.w3.org/2000/svg" p-id="11565" xmlns:xlink="http://www.w3.org/1999/xlink" width="200" height="200"><defs><style type="text/css"></style></defs><path d="M512 950.857143A438.857143 438.857143 0 1 0 512 73.142857a438.857143 438.857143 0 0 0 0 877.714286z m0 73.142857A512 512 0 1 1 512 0a512 512 0 0 1 0 1024z m7.533714-835.218286c-63.853714 0-113.590857 19.529143-149.065143 58.514286-35.547429 37.302857-52.370286 87.04-52.370285 149.211429h70.070857c0-43.52 9.801143-77.238857 29.257143-102.107429 21.357714-29.257143 54.125714-43.52 98.596571-43.52 37.302857 0 66.56 9.801143 86.966857 31.085714 19.529143 19.529143 30.134857 47.030857 30.134857 82.578286 0 24.868571-8.850286 47.908571-26.624 70.070857a393.435429 393.435429 0 0 1-30.134857 31.963429c-47.981714 42.569143-77.238857 76.288-89.673143 102.912a176.493714 176.493714 0 0 0-15.945142 77.238857v20.48h70.948571v-20.48c0-23.990857 5.339429-45.275429 16.896-64.804572 8.850286-15.945143 22.162286-31.963429 41.691429-48.786285 39.058286-34.596571 63.049143-57.709714 71.899428-68.315429 22.162286-29.257143 33.718857-63.926857 33.718857-103.862857 0-53.248-16.822857-94.939429-49.737143-125.074286-34.596571-32.036571-79.798857-47.104-136.630857-47.104z m-13.312 540.525715a50.834286 50.834286 0 0 0-38.180571 15.067428 47.616 47.616 0 0 0-15.067429 37.302857c0 15.067429 4.388571 27.428571 15.067429 38.107429a54.418286 54.418286 0 0 0 38.180571 15.067428 54.418286 54.418286 0 0 0 38.180572-15.067428 48.932571 48.932571 0 0 0 15.945143-38.180572 50.834286 50.834286 0 0 0-15.067429-37.302857 52.809143 52.809143 0 0 0-39.058286-15.067428z" p-id="11566" fill="#5facfb"></path></svg>