<?xml version="1.0" standalone="no"?><!DOCTYPE svg PUBLIC "-//W3C//DTD SVG 1.1//EN" "http://www.w3.org/Graphics/SVG/1.1/DTD/svg11.dtd"><svg t="1534402044931" class="icon" style="" viewBox="0 0 1024 1024" version="1.1" xmlns="http://www.w3.org/2000/svg" p-id="6359" xmlns:xlink="http://www.w3.org/1999/xlink" width="200" height="200"><defs><style type="text/css"></style></defs><path d="M146.285714 0h731.428572a146.285714 146.285714 0 0 1 146.285714 146.285714v731.428572a146.285714 146.285714 0 0 1-146.285714 146.285714H146.285714a146.285714 146.285714 0 0 1-146.285714-146.285714V146.285714a146.285714 146.285714 0 0 1 146.285714-146.285714z m0 73.142857a73.142857 73.142857 0 0 0-73.142857 73.142857v731.428572a73.142857 73.142857 0 0 0 73.142857 73.142857h731.428572a73.142857 73.142857 0 0 0 73.142857-73.142857V146.285714a73.142857 73.142857 0 0 0-73.142857-73.142857H146.285714z m624.347429 133.705143l51.712 51.712L718.921143 362.057143l-51.785143-51.712 103.497143-103.497143zM615.424 362.057143l51.712 51.712L563.712 517.12 512 465.481143 615.424 362.057143zM460.288 517.12L512 568.905143 408.576 672.329143l-51.712-51.712 103.424-103.424zM305.152 672.329143l51.712 51.712-103.424 103.497143-51.785143-51.712 103.497143-103.497143zM443.977143 167.716571L495.762286 219.428571 392.338286 322.852571l-51.712-51.712L443.977143 167.716571zM288.914286 322.852571l51.712 51.785143-103.497143 103.424-51.712-51.712L288.914286 322.852571z m520.777143 210.651429l51.785142 51.638857-103.424 103.424-51.712-51.712 103.424-103.424z m-155.062858 155.062857l51.712 51.785143-103.497142 103.424-51.712-51.712L654.628571 688.566857z" fill="#333333" p-id="6360"></path></svg>