<?xml version="1.0" standalone="no"?><!DOCTYPE svg PUBLIC "-//W3C//DTD SVG 1.1//EN" "http://www.w3.org/Graphics/SVG/1.1/DTD/svg11.dtd"><svg t="1550546779312" class="icon" style="" viewBox="0 0 1024 1024" version="1.1" xmlns="http://www.w3.org/2000/svg" p-id="10450" xmlns:xlink="http://www.w3.org/1999/xlink" width="200" height="200"><defs><style type="text/css"></style></defs><path d="M512.4608 128A179.3024 179.3024 0 0 0 332.8 306.7392 180.0704 180.0704 0 0 0 512.4608 486.4c97.792 0 178.7392-81.4592 178.7392-179.6608A179.712 179.712 0 0 0 512.4608 128z m0-76.8C653.2608 51.2 768 166.7072 768 306.7392S653.2096 563.2 512.4608 563.2A256.8704 256.8704 0 0 1 256 306.7392 256.1024 256.1024 0 0 1 512.4608 51.2z m119.2448 640H392.2944c-138.9568 0-249.344 81.664-262.912 178.5344 4.4544 2.5088 9.984 5.1712 16.2304 7.8336 26.112 10.9568 59.2384 18.432 77.1072 18.432h578.56c18.5856 0 51.6096-7.3216 77.5168-18.176 6.144-2.56 11.52-5.1712 15.872-7.6288-13.2608-96.8192-123.392-178.9952-262.9632-178.9952zM972.8 889.8048C972.8 936.0896 858.4704 972.8 801.28 972.8H222.72C166.5024 972.8 51.2 935.2704 51.2 889.8048 51.2 737.28 205.312 614.4 392.2944 614.4h239.4112C820.6336 614.4 972.8 738.9184 972.8 889.8048z" p-id="10451"></path></svg>