<?xml version="1.0" standalone="no"?><!DOCTYPE svg PUBLIC "-//W3C//DTD SVG 1.1//EN" "http://www.w3.org/Graphics/SVG/1.1/DTD/svg11.dtd"><svg t="1550546795303" class="icon" style="" viewBox="0 0 1024 1024" version="1.1" xmlns="http://www.w3.org/2000/svg" p-id="10559" xmlns:xlink="http://www.w3.org/1999/xlink" width="200" height="200"><defs><style type="text/css"></style></defs><path d="M102.4 896V153.344C102.4 96.9216 148.1216 51.2 204.4928 51.2h615.0144C875.8272 51.2 921.6 96.9216 921.6 153.344V896h64a38.4 38.4 0 1 1 0 76.8H38.4a38.4 38.4 0 1 1 0-76.8H102.4z m742.4 0V153.344a25.3952 25.3952 0 0 0-25.2928-25.344H204.4928a25.2928 25.2928 0 0 0-25.2928 25.344V896h665.6zM307.2 256h102.4v153.6H307.2V256z m307.2 0h102.4v153.6h-102.4V256z m-307.2 256h102.4v153.6H307.2v-153.6z m307.2 0h102.4v153.6h-102.4v-153.6z" p-id="10560"></path></svg>