<?xml version="1.0" standalone="no"?><!DOCTYPE svg PUBLIC "-//W3C//DTD SVG 1.1//EN" "http://www.w3.org/Graphics/SVG/1.1/DTD/svg11.dtd"><svg t="1532599460257" class="icon" style="" viewBox="0 0 1024 1024" version="1.1" xmlns="http://www.w3.org/2000/svg" p-id="6056" xmlns:xlink="http://www.w3.org/1999/xlink" width="200" height="200"><defs><style type="text/css"></style></defs><path d="M512 0l460.8 256v512l-460.8 256-460.8-256V256l460.8-256zM102.4 737.8944l409.6 227.5328 409.6-227.5328V286.1056l-409.6-227.5328-409.6 227.5328v451.7888zM512 307.2a204.8 204.8 0 1 1 0 409.6 204.8 204.8 0 0 1 0-409.6z m0 51.2c-84.6848 0-153.6 68.9152-153.6 153.6s68.9152 153.6 153.6 153.6 153.6-68.9152 153.6-153.6-68.9152-153.6-153.6-153.6z" fill="currentColor" p-id="6057"></path></svg>