<?xml version="1.0" standalone="no"?><!DOCTYPE svg PUBLIC "-//W3C//DTD SVG 1.1//EN" "http://www.w3.org/Graphics/SVG/1.1/DTD/svg11.dtd"><svg t="1534402032062" class="icon" style="" viewBox="0 0 1024 1024" version="1.1" xmlns="http://www.w3.org/2000/svg" p-id="6235" xmlns:xlink="http://www.w3.org/1999/xlink" width="200" height="200"><defs><style type="text/css"></style></defs><path d="M830.320778 767.999451V877.713659h-73.142805v-109.714208h-73.142804V877.713659h-73.142805v-109.714208H80.826457l-7.460567 104.521069A73.142805 73.142805 0 0 0 146.289267 950.856464h709.777779a73.142805 73.142805 0 0 0 72.996519-78.335944l-7.533709-104.521069h-91.209078z m86.015939-73.142804l-39.497115-553.764176A73.142805 73.142805 0 0 0 803.843083 73.142805H198.51323a73.142805 73.142805 0 0 0-72.923377 67.949666L86.019596 694.856647h830.317121zM198.51323 0h605.329853a146.28561 146.28561 0 0 1 145.919896 135.899332l52.223962 731.428048A146.28561 146.28561 0 0 1 856.067046 1023.999269H146.289267a146.28561 146.28561 0 0 1-145.919896-156.671889l52.223963-731.428048A146.28561 146.28561 0 0 1 198.51323 0z" fill="#333333" p-id="6236"></path></svg>