<?xml version="1.0" standalone="no"?><!DOCTYPE svg PUBLIC "-//W3C//DTD SVG 1.1//EN" "http://www.w3.org/Graphics/SVG/1.1/DTD/svg11.dtd"><svg t="1535015034281" class="icon" style="" viewBox="0 0 1024 1024" version="1.1" xmlns="http://www.w3.org/2000/svg" p-id="4214" xmlns:xlink="http://www.w3.org/1999/xlink" width="200" height="200"><defs><style type="text/css"></style></defs><path d="M512 1024c282.7776 0 512-229.2224 512-512S794.7776 0 512 0 0 229.2224 0 512s229.2224 512 512 512z m16.0768-716.8c-21.248 0-39.3216-7.4752-54.3232-22.4768a75.1104 75.1104 0 0 1-22.4768-55.296c0-21.1968 7.4752-39.168 22.4768-53.8112 15.0016-14.6944 33.0752-22.016 54.3232-22.016 21.248 0 39.3216 7.3216 54.3232 22.016 15.0016 14.6432 22.4768 32.6144 22.4768 53.8624 0 21.8624-7.4752 40.2432-22.4768 55.2448A73.984 73.984 0 0 1 528.0768 307.2z m-27.4944 407.552c-0.9728 4.4032-4.352 17.1008 0.6656 29.3376 4.9664 12.2368 24.1152 14.592 37.376 6.7072-4.8128 20.6336-38.7584 74.752-94.72 61.44-46.336-11.0592-58.1632-62.2592-43.52-117.9648l45.7216-199.7824c4.4032-19.456-22.3744-19.6608-18.432-36.9152 4.608-20.1728 19.6096-34.1504 57.0368-61.9008 12.5952-9.3184 25.4464-12.8 38.0928-11.2128 12.6464 1.536 23.1936 8.2432 31.6928 20.1216 8.448 11.776 10.6496 28.2624 6.656 49.3568L500.5312 714.752z" p-id="4215"></path></svg>
