<?xml version="1.0" standalone="no"?><!DOCTYPE svg PUBLIC "-//W3C//DTD SVG 1.1//EN" "http://www.w3.org/Graphics/SVG/1.1/DTD/svg11.dtd"><svg t="1550552940293" class="icon" style="" viewBox="0 0 1024 1024" version="1.1" xmlns="http://www.w3.org/2000/svg" p-id="9203" xmlns:xlink="http://www.w3.org/1999/xlink" width="200" height="200"><defs><style type="text/css"></style></defs><path d="M924.479422 331.776433A160.3199 160.3199 0 0 1 1023.99936 480.64034v62.71996C1023.99936 631.744245 952.319405 704.0002 863.99946 704.0002h-15.039991l-40.383974 114.559928c-24.959984 70.527956-97.343939 137.343914-171.519893 160.6399a63.74396 63.74396 0 0 1-60.991962 44.799972H511.93568A63.80796 63.80796 0 0 1 447.99972 960.00004c0-35.327978 28.351982-63.99996 63.93596-63.99996h64.12796c18.559988 0 35.263978 7.871995 46.975971 20.479987 53.311967-18.751988 107.583933-69.503957 125.183921-119.231925L781.119512 704.0002H767.99952c-35.583978 0-63.99996-28.415982-63.99996-63.35996V383.3604A63.99996 63.99996 0 0 1 767.99952 320.00044h89.599944a320.831799 320.831799 0 0 0-314.111804-255.99984h-62.97596A320.1278 320.1278 0 0 0 166.399896 320.00044H255.99984a63.99996 63.99996 0 0 1 63.99996 63.35996v257.27984c0 34.943978-28.415982 63.35996-63.99996 63.35996H159.9999C71.679955 704.0002 0 631.744245 0 543.3603v-62.71996c0-67.327958 40.959974-124.991922 99.519938-148.863907A383.99976 383.99976 0 0 1 480.5117 0.00064h62.97596c193.279879 0 355.199778 143.35991 380.991762 331.775793zM255.99984 640.00024V384.0004H159.9999C106.687933 384.0004 63.99996 426.944373 63.99996 480.64034v62.71996C63.99996 596.608267 107.135933 640.00024 159.9999 640.00024H255.99984z m511.99968 0h95.99994c52.863967 0 95.99994-43.391973 95.99994-96.63994v-62.71996C959.9994 426.880373 917.311427 384.0004 863.99946 384.0004H767.99952v255.99984z" p-id="9204"></path></svg>