<?xml version="1.0" standalone="no"?><!DOCTYPE svg PUBLIC "-//W3C//DTD SVG 1.1//EN" "http://www.w3.org/Graphics/SVG/1.1/DTD/svg11.dtd"><svg t="1550626381313" class="icon" style="" viewBox="0 0 1024 1024" version="1.1" xmlns="http://www.w3.org/2000/svg" p-id="7399" xmlns:xlink="http://www.w3.org/1999/xlink" width="200" height="200"><defs><style type="text/css"></style></defs><path d="M666.2656 896.1536c87.04-21.9904 149.7344-101.0432 149.7344-193.1264v-19.2512h25.6v19.2512c0 105.344-72.7296 195.584-173.1328 218.9568a70.4768 70.4768 0 0 1-70.0672 63.616 70.5024 70.5024 0 0 1-70.4-70.6048 70.5024 70.5024 0 0 1 70.4-70.6048c32.384 0 59.648 21.9136 67.8656 51.7632zM598.4 960c24.7296 0 44.8-20.1472 44.8-45.0048s-20.0704-45.0048-44.8-45.0048-44.8 20.1472-44.8 45.0048 20.0704 45.0048 44.8 45.0048zM179.2 369.152H153.6C153.6 186.4704 301.1584 38.4 483.2 38.4h57.6C722.8416 38.4 870.4 186.496 870.4 369.152h-25.6C844.8 200.576 708.6848 64 540.8 64h-57.6C315.3152 64 179.2 200.6016 179.2 369.152z m12.8 14.848A89.6 89.6 0 0 0 102.4 473.6v116.4288a89.6 89.6 0 0 0 89.6 89.6h86.4a3.2 3.2 0 0 0 3.2-3.2V387.2a3.2 3.2 0 0 0-3.2-3.2H192z m0-25.6h86.4c15.8976 0 28.8 12.9024 28.8 28.8v289.2288c0 15.9232-12.9024 28.8-28.8 28.8H192a115.2 115.2 0 0 1-115.2-115.2V473.6A115.2 115.2 0 0 1 192 358.4z m553.6 25.6a3.2 3.2 0 0 0-3.2 3.2v289.2288c0 1.792 1.4336 3.2 3.2 3.2H832a89.6 89.6 0 0 0 89.6-89.6V473.6a89.6 89.6 0 0 0-89.6-89.6h-86.4z m0-25.6H832a115.2 115.2 0 0 1 115.2 115.2v116.4288a115.2 115.2 0 0 1-115.2 115.2h-86.4A28.8 28.8 0 0 1 716.8 676.4288V387.2c0-15.8976 12.9024-28.8 28.8-28.8z" fill="#666666" p-id="7400"></path></svg>