<?xml version="1.0" standalone="no"?><!DOCTYPE svg PUBLIC "-//W3C//DTD SVG 1.1//EN" "http://www.w3.org/Graphics/SVG/1.1/DTD/svg11.dtd"><svg t="1545732963493" class="icon" style="" viewBox="0 0 1024 1024" version="1.1" xmlns="http://www.w3.org/2000/svg" p-id="3126" xmlns:xlink="http://www.w3.org/1999/xlink" width="200" height="200"><defs><style type="text/css"></style></defs><path d="M1021.9008 440.2176c-4.1984-23.6032-25.2928-45.056-48.4864-51.5072l-16.8448-2.1504c-40.0384-12.9024-73.728-38.656-94.8224-77.312-21.0432-38.6048-27.392-83.712-16.8448-124.4672l4.1984-15.0528c6.3488-21.504-2.048-51.5072-18.944-66.56 0 0-14.7456-12.8512-58.9824-38.6048-44.2368-25.8048-63.232-32.256-63.232-32.256-21.0432-8.5504-50.5344 0-67.4304 17.2032l-12.6464 12.9024a173.568 173.568 0 0 1-113.7664 42.9056 157.6448 157.6448 0 0 1-113.7664-47.2064L389.7856 45.2096C375.04 28.0576 343.4496 21.6576 322.3552 28.0576c0 0-18.944 6.4512-63.1808 32.2048s-59.0336 38.656-59.0336 38.656a74.752 74.752 0 0 0-21.0432 70.8096l4.1984 17.2032a185.3952 185.3952 0 0 1-16.8448 124.4672 158.5152 158.5152 0 0 1-96.9216 77.312l-16.896 4.3008c-20.992 4.3008-44.1856 27.904-48.4352 51.5072 0 0-4.1984 21.504-4.1984 73.0112s4.1984 72.96 4.1984 72.96c4.2496 23.6032 25.2928 45.056 48.4864 51.5584l14.7456 4.2496c40.0384 12.9024 73.728 38.656 96.9216 77.312 21.0432 38.656 27.392 83.712 16.896 124.5184l-2.1504 8.5504c-6.3488 21.504 2.0992 51.5584 18.944 66.56 0 0 14.7456 12.9024 59.0336 38.656 44.2368 25.7536 63.1808 32.2048 63.1808 32.2048 21.0944 8.6016 50.5856 0 67.4304-17.2032l10.5472-12.8512c31.5904-23.6032 71.6288-42.9568 115.8656-42.9568 44.2368 0 84.2752 17.2032 113.7664 47.2576l10.5472 12.8512c14.7456 17.2032 46.336 23.6544 67.4304 17.2032 0 0 18.944-6.4512 63.232-32.256 44.2368-25.7024 58.9824-38.6048 58.9824-38.6048 16.896-15.0016 25.2928-45.056 18.944-66.56l-4.1984-17.152c-8.448-40.8064-4.1984-83.712 16.896-122.368a158.5152 158.5152 0 0 1 96.8704-77.312l14.7456-4.2496c21.0944-4.3008 44.2368-27.904 48.4864-51.5584 0 0 4.1984-21.4528 4.1984-72.96 0-53.6576-2.0992-75.1616-2.0992-75.1616z m-507.8016 281.2416c-111.616 0-204.3904-92.3136-204.3904-208.2304 0-113.7664 90.624-208.2304 204.3904-208.2304 111.6672 0 204.3904 92.3136 204.3904 208.2304 0 113.7664-92.672 208.2304-204.3904 208.2304z" p-id="3127"></path></svg>