<?xml version="1.0" standalone="no"?><!DOCTYPE svg PUBLIC "-//W3C//DTD SVG 1.1//EN" "http://www.w3.org/Graphics/SVG/1.1/DTD/svg11.dtd"><svg t="1551844088601" class="icon" style="" viewBox="0 0 1024 1024" version="1.1" xmlns="http://www.w3.org/2000/svg" p-id="10541" xmlns:xlink="http://www.w3.org/1999/xlink" width="200" height="200"><defs><style type="text/css"></style></defs><path d="M512 223.642c29.082 0 52.531 23.552 52.531 52.53 0 28.98-23.552 52.532-52.531 52.532-28.98 0-52.531-23.552-52.531-52.531 0-28.98 23.552-52.531 52.531-52.531z m0 174.49c24.269 0 44.032 19.762 44.032 44.031V771.38c0 24.269-19.763 44.032-44.032 44.032s-44.032-19.763-44.032-44.032V442.163c0-24.269 19.763-44.032 44.032-44.032zM512 1024c282.829 0 512-229.274 512-512S794.829 0 512 0C229.274 0 0 229.274 0 512s229.274 512 512 512z m0-955.7c244.736 0 443.7 199.066 443.7 443.7 0 244.736-198.964 443.7-443.7 443.7-244.634 0-443.7-198.964-443.7-443.7C68.3 267.366 267.367 68.3 512 68.3z m0 0" ></path></svg>