<?xml version="1.0" standalone="no"?><!DOCTYPE svg PUBLIC "-//W3C//DTD SVG 1.1//EN" "http://www.w3.org/Graphics/SVG/1.1/DTD/svg11.dtd"><svg t="1532603183765" class="icon" style="" viewBox="0 0 1024 1024" version="1.1" xmlns="http://www.w3.org/2000/svg" p-id="8126" xmlns:xlink="http://www.w3.org/1999/xlink" width="200" height="200"><defs><style type="text/css"></style></defs><path d="M346.368 924.288a179.328 179.328 0 0 1-253.44 0 179.0464 179.0464 0 0 1 0.0256-253.44l236.1088-236.1088a332.544 332.544 0 0 1 89.728-306.944 332.8 332.8 0 0 1 351.232-76.6976l37.4272 13.8752-135.3216 135.3216a102.4256 102.4256 0 0 0 144.8192 144.8192l135.3216-135.3216 13.8752 37.4272a332.8 332.8 0 0 1-76.7232 351.232 332.544 332.544 0 0 1-306.944 89.728l-236.0832 236.1088zM761.1392 75.0848c-109.1072-40.448-236.544-16.8448-324.224 70.8096a307.072 307.072 0 0 0-79.5648 296.7808l-246.272 246.272a153.4464 153.4464 0 0 0 0 217.2416 153.728 153.728 0 0 0 217.216 0l246.272-246.272a307.072 307.072 0 0 0 296.7808-79.5648c87.68-87.68 111.2832-215.1424 70.8096-324.2496l-107.1104 107.1104a128.0256 128.0256 0 0 1-180.992-180.992l107.0848-107.136zM204.288 819.7376a25.6 25.6 0 1 1 36.1984-36.1984A25.6 25.6 0 0 1 204.288 819.712z" fill="#666666" p-id="8127"></path></svg>