<?xml version="1.0" standalone="no"?><!DOCTYPE svg PUBLIC "-//W3C//DTD SVG 1.1//EN" "http://www.w3.org/Graphics/SVG/1.1/DTD/svg11.dtd"><svg t="1532602938955" class="icon" style="" viewBox="0 0 1024 1024" version="1.1" xmlns="http://www.w3.org/2000/svg" p-id="7666" xmlns:xlink="http://www.w3.org/1999/xlink" width="200" height="200"><defs><style type="text/css"></style></defs><path d="M793.6 507.6992c90.4192 39.5008 153.6 129.7152 153.6 234.7008 0 141.3888-114.6112 256-256 256a254.976 254.976 0 0 1-111.7184-25.6H179.1232A51.072 51.072 0 0 1 128 921.6V102.4c0-28.288 22.912-51.2 51.1232-51.2h563.3536C770.7136 51.2 793.6 73.984 793.6 102.4v405.2992z m-25.6-9.5744V102.4c0-14.2336-11.3664-25.6-25.5232-25.6H179.1232A25.5744 25.5744 0 0 0 153.6 102.4v819.2c0 14.2336 11.3664 25.6 25.5232 25.6h358.4512A255.616 255.616 0 0 1 435.2 742.4c0-141.3888 114.6112-256 256-256 26.752 0 52.5568 4.096 76.8 11.7248zM691.2 972.8a230.4 230.4 0 1 0 0-460.8 230.4 230.4 0 0 0 0 460.8z m118.9376-316.2624l18.1248 18.1248L665.6 837.2992l-85.8624-85.8368 18.1248-18.1248L665.6 801.1008l144.5376-144.5632zM409.6 153.6l0.0512-25.6 102.4 0.2048-0.0512 25.6-102.4-0.2048z" fill="#666666" p-id="7667"></path></svg>