<?xml version="1.0" standalone="no"?><!DOCTYPE svg PUBLIC "-//W3C//DTD SVG 1.1//EN" "http://www.w3.org/Graphics/SVG/1.1/DTD/svg11.dtd"><svg t="1544522972058" class="icon" style="" viewBox="0 0 1024 1024" version="1.1" xmlns="http://www.w3.org/2000/svg" p-id="2289" xmlns:xlink="http://www.w3.org/1999/xlink" width="200" height="200"><defs><style type="text/css"></style></defs><path d="M716.8 896h153.856a25.6 25.6 0 0 0 25.344-25.9072V409.6h-768v460.4928a25.6 25.6 0 0 0 25.344 25.9072H512v-204.288a102.4 102.4 0 0 1 204.8 0v204.288zM51.2 408.6784a61.44 61.44 0 0 1-45.2096-86.016l96.6656-211.6096A102.4 102.4 0 0 1 195.7888 51.2h632.4224a102.4 102.4 0 0 1 93.1328 59.8528l96.6656 211.5584A61.44 61.44 0 0 1 972.8 408.6272v461.4656A102.4 102.4 0 0 1 870.656 972.8H153.344A102.4 102.4 0 0 1 51.2 870.0928V408.6784z" p-id="2290"></path></svg>