<?xml version="1.0" standalone="no"?><!DOCTYPE svg PUBLIC "-//W3C//DTD SVG 1.1//EN" "http://www.w3.org/Graphics/SVG/1.1/DTD/svg11.dtd"><svg t="1532615648243" class="icon" style="" viewBox="0 0 1024 1024" version="1.1" xmlns="http://www.w3.org/2000/svg" p-id="3874" xmlns:xlink="http://www.w3.org/1999/xlink" width="200" height="200"><defs><style type="text/css"></style></defs><path d="M706.56 285.062095l-101.424762 191.097905h76.458667c12.483048 0 22.576762 9.508571 22.576762 21.26019v35.108572c0 11.800381-10.093714 21.308952-22.576762 21.308952H563.687619v42.179048h117.906286c12.483048 0 22.576762 9.508571 22.576762 21.26019v35.157334c0 11.751619-10.093714 21.26019-22.576762 21.26019H563.687619v74.703238c0 11.751619-10.142476 21.26019-22.625524 21.260191H481.28c-12.483048 0-22.625524-9.508571-22.625524-21.260191v-74.703238h-116.053333c-12.434286 0-22.576762-9.508571-22.576762-21.26019v-35.108572c0-11.800381 10.142476-21.308952 22.625524-21.308952h116.053333v-42.179048h-116.053333c-12.483048 0-22.625524-9.508571-22.625524-21.26019V497.371429c0-11.751619 10.142476-21.26019 22.625524-21.260191h74.898285L317.44 285.013333c-7.363048-14.140952 3.559619-30.72 20.284952-30.72h57.197715a34.133333 34.133333 0 0 1 30.72 18.383238l65.584762 131.413334c9.45981 18.724571 16.188952 35.254857 20.187428 49.542095 4.729905-15.457524 11.459048-31.98781 20.187429-49.542095l66.998857-131.657143a34.133333 34.133333 0 0 1 30.573714-18.090667h57.197714c16.774095 0 27.696762 16.579048 20.236191 30.72M877.226667 0H146.773333C79.09181 0 24.380952 51.541333 24.380952 115.078095v793.84381C24.380952 972.458667 79.140571 1024 146.773333 1024h730.453334c67.632762 0 122.392381-51.541333 122.392381-115.078095V115.078095C999.619048 51.541333 944.859429 0 877.226667 0" fill="#5C7096" p-id="3875"></path></svg>