<?xml version="1.0" standalone="no"?><!DOCTYPE svg PUBLIC "-//W3C//DTD SVG 1.1//EN" "http://www.w3.org/Graphics/SVG/1.1/DTD/svg11.dtd"><svg class="icon" width="200px" height="200.00px" viewBox="0 0 1024 1024" version="1.1" xmlns="http://www.w3.org/2000/svg"><path d="M832 192h12.8c28.8 0 38.4 3.2 48 9.6 9.6 6.4 19.2 12.8 25.6 25.6 6.4 6.4 9.6 19.2 9.6 48v604.8c0 28.8-3.2 38.4-9.6 48-6.4 9.6-12.8 19.2-25.6 25.6-9.6 6.4-19.2 9.6-48 9.6h-32V960c12.8-22.4 16-44.8 16-80L832 192z" fill="#DDDDDD" /><path d="M211.2 64h476.8c28.8 0 38.4 3.2 48 9.6s19.2 12.8 25.6 25.6c3.2 6.4 6.4 19.2 6.4 48v732.8c0 28.8-3.2 38.4-9.6 48-6.4 9.6-12.8 19.2-25.6 25.6-9.6 6.4-19.2 9.6-48 9.6H211.2c-28.8 0-38.4-3.2-48-9.6-9.6-6.4-19.2-12.8-25.6-25.6-6.4-9.6-9.6-22.4-9.6-51.2V147.2c0-28.8 3.2-41.6 9.6-51.2 3.2-9.6 12.8-19.2 22.4-22.4S182.4 64 211.2 64z m291.2 96h-108.8c-9.6 0-16 6.4-16 16s6.4 16 16 16h108.8c9.6 0 16-6.4 16-16S512 160 502.4 160z" fill="#CCCCCC" /><path d="M256 256h384c19.2 0 32 12.8 32 32v544c0 19.2-12.8 32-32 32H256c-19.2 0-32-12.8-32-32V288c0-19.2 12.8-32 32-32z" fill="#DDDDDD" /></svg>