<?xml version="1.0" standalone="no"?><!DOCTYPE svg PUBLIC "-//W3C//DTD SVG 1.1//EN" "http://www.w3.org/Graphics/SVG/1.1/DTD/svg11.dtd"><svg t="1537340169658" class="icon" style="" viewBox="0 0 1024 1024" version="1.1" xmlns="http://www.w3.org/2000/svg" p-id="6838" xmlns:xlink="http://www.w3.org/1999/xlink" width="200" height="200"><defs><style type="text/css"></style></defs><path d="M51.201024 429.312v441.0368L973.210624 870.4c-0.3072 0-0.512-147.0464-0.4608-441.088H51.252224z m0-51.2h921.6V153.6L50.791424 153.6C50.996224 153.6 51.149824 228.4544 51.201024 378.112zM0.001024 153.6C0.001024 125.3376 23.297024 102.4 50.791424 102.4h922.4192c28.0576 0 50.7904 22.784 50.7904 51.2v716.8c0 28.2624-23.296 51.2-50.7904 51.2H50.791424A50.8928 50.8928 0 0 1 0.001024 870.4V153.6zM665.601024 614.4h51.2v153.6h-51.2v-153.6z m153.6 0h51.2v153.6h-51.2v-153.6z" fill="#666666" p-id="6839"></path></svg>