<?xml version="1.0" standalone="no"?><!DOCTYPE svg PUBLIC "-//W3C//DTD SVG 1.1//EN" "http://www.w3.org/Graphics/SVG/1.1/DTD/svg11.dtd"><svg t="1532614445046" class="icon" style="" viewBox="0 0 1608 1024" version="1.1" xmlns="http://www.w3.org/2000/svg" p-id="3414" xmlns:xlink="http://www.w3.org/1999/xlink" width="314.0625" height="200"><defs><style type="text/css"></style></defs><path d="M1077.020997 709.896301s14.333952-7.459506 22.085988-9.799743c7.752035-1.901443 19.526353-3.364091 19.526353-3.364091l9.214684-30.715612h-37.882588l-12.944437 43.879446z m295.528067-142.02314l-2.193972 2.413369h0.365662l-19.599486 34.079703c-6.143122 11.701186-17.624911 20.477075-35.981145 20.477075l-31.300671-0.438794 9.141551-30.715612h6.143122a16.674189 16.674189 0 0 0 7.313241-1.170119c1.462648-0.585059 2.705899-1.682045 3.94915-3.583488l11.042994-17.990573c15.430938-24.060563 19.380089-34.372233 35.615484-61.796886-2.852164-30.496215-4.168547-40.442223-6.581917-60.480503-1.389516-12.13998-3.217826-24.353092-4.680475-36.41994-2.925296-24.718754-2.340237-21.281531-5.265533-36.858734l-0.219397-0.365662 0.438794-2.852164 1.82831-1.608913c24.206828-3.071561 24.865019-3.876018 50.900158-8.995287l2.193972 2.193973 3.437223 68.378803c0 1.462648 0.073132 2.41337 0.219397 3.729753 13.895158-31.446936 13.310099-22.744179 30.423083-62.893873v0.365662c0.219397-0.29253 0.219397-0.731324 0.292529-1.170118l1.828311-1.608913c22.817312-3.071561 27.278389-3.876018 52.289673-8.995287l1.901442 2.193973s-100.337666 175.225254-113.5015 204.112555z m-32.17826 98.143694h-50.827025l-8.044565 25.81574h51.119555l-8.410227 28.22911h-55.21497l-9.799743 11.993716h22.305385l5.484931 35.615483c0.658192 3.437223 0.731324 5.77746 1.755178 7.313241 1.096986 1.316383 7.825168 1.974575 11.774318 1.974575h6.801314l-10.384802 34.59163H1279.817169c-2.705899 0-6.581917-0.219397-12.066848-0.438795-5.119269-0.438794-8.849022-3.583488-12.359377-5.265533a17.259249 17.259249 0 0 1-8.995286-12.213112l-5.338666-35.469219-25.157549 34.957292a42.48993 42.48993 0 0 1-37.004999 19.453221h-35.103557l9.141551-30.861877h13.529496c3.802885 0 7.313241-1.462648 9.799743-2.925297a14.626482 14.626482 0 0 0 7.386373-6.216254l36.566205-52.509071h-48.26739l8.263962-28.22911h55.214969L1243.250964 666.016855h-54.556777l9.43408-31.739466h151.822883l-9.507213 31.739466z m-209.963148 146.411084h-46.658477l3.217826-10.531067h-94.706471l9.580346-31.520069h9.507213l49.730039-167.326953 9.872875-33.787173h47.536066l-4.973004 17.112984s12.651907-9.287816 24.645622-12.43251c9.872875-2.705899 58.87159-4.022283 75.326382-4.314812v-0.073133h50.68076l0.731324 19.233824c-0.438794 3.144694 2.340237 4.680474 8.19083 4.680474h10.457935l-9.507213 31.812599h-27.424654c-23.768033 1.755178-32.690187-8.556492-32.17826-20.33081l-0.511927-18.79503-5.119269 16.820455h-16.235395l-48.998714 164.913583h13.163834l-10.165405 34.006571h-13.163834l-2.998429 10.531067z m-152.115412-87.978289c-1.755178 6.143122-3.364091 10.969861-8.044565 15.138409a32.47079 32.47079 0 0 1-24.133695 8.556492l-24.718755 0.950721-0.146265 22.74418c-0.365662 6.435652 1.389516 5.850593 2.340238 6.801314a6.581917 6.581917 0 0 0 3.36409 1.974575l7.825168-0.29253 23.621769-1.462648-9.653479 33.202114h-27.351521c-19.014427 0-33.128982-0.511927-37.736323-4.24168-4.607342-2.925296-5.265533-6.581917-5.119269-13.017569l1.755178-88.490216h43.367519l-0.511927 18.136838h10.384802c3.65662 0 5.996858-0.365662 7.459506-1.316383a8.48336 8.48336 0 0 0 2.925296-4.680475l4.387945-13.895157h34.079703l-4.095415 19.892015z m-111.526925 88.124554h-34.372232c-10.969861 0-18.941294-0.146265-24.57249-0.511927-5.265533-0.511927-10.823597 0-14.480217-2.925297-3.217826-2.925296-8.19083-6.655049-8.044565-10.604199 0.365662-3.65662 1.82831-9.580346 4.022282-17.698043l62.747608-211.352664h44.61077l-6.435652 22.963577s14.114555-11.481788 23.98743-15.504071c9.872875-3.802885 32.17826-7.313241 32.17826-7.313241l72.327954-0.219397-24.57249 83.517211a100.410798 100.410798 0 0 1-12.066848 27.790316 31.812598 31.812598 0 0 1-12.286245 11.408656 45.342094 45.342094 0 0 1-16.820454 5.77746 424.60677 424.60677 0 0 1-22.15912 0.658192h-69.768319l-19.74575 66.111698c-1.82831 6.435652-2.705899 9.507213-1.462649 11.335524a8.044565 8.044565 0 0 0 6.728182 3.364091l30.715612-2.998429-10.531067 36.200543z m-105.676332 0H702.071133a50.022568 50.022568 0 0 1-13.456364-1.828311 13.529496 13.529496 0 0 1-9.360948-6.874446c-2.193972-3.583488-5.338666-6.435652-3.217826-13.895158l17.039851-57.043279h-29.106699l9.653478-32.690188h29.252964l7.678903-26.327667h-29.033566l9.287816-31.154407h127.981717l-9.434081 31.154407h-51.192687l-7.971433 26.327667h52.362806l-9.507214 32.178261h-52.362805l-12.725039 42.928724c-1.462648 4.899871 12.43251 5.484931 17.405513 5.484931l26.254535-3.656621-10.531067 35.396087z m-109.698614-375.315527c4.314812-18.868162 11.481788-38.760177 26.912727-53.167261 21.574061-20.33081 49.144979-21.500928 60.6999-21.500929 19.306956 0 37.882588 4.387945 48.486787 18.063705 6.874447 8.995286 12.43251 23.841166 5.265534 55.361234-2.193972 9.507213-8.48336 32.690187-22.15912 48.121126-17.771176 19.306956-41.392944 25.742608-64.502786 25.742608-8.995286 0-22.890444-1.243251-32.690187-5.484931-31.446936-12.871304-26.473932-47.682331-22.085988-67.135552z m-17.844308-56.604485c-13.456363 9.507213-33.421511 11.554921-44.757035 4.899872-11.335523-6.801314-9.799743-20.03828 3.656621-29.399229 13.456363-9.507213 33.421511-11.554921 44.757034-4.680474 11.335523 6.655049 9.653478 19.745751-3.65662 29.252964z m-2.632767 42.197401c-2.340237 9.799743-4.680474 19.453221-6.874446 29.252963-4.387945 20.769604-6.289387 28.448507-7.313241 34.006571-1.096986 5.265533-1.389516 8.117697-3.144694 18.868162l-1.096986 0.950721-1.170119 0.804457c-12.066848 0-20.03828-0.29253-27.570918 0-7.678903 0-15.065276 0.438794-26.327668 0.950721l-0.731324-1.023854-0.731324-0.950721c3.071561-11.920583 4.826739-16.08913 6.36252-20.33081 1.462648-4.168547 2.925296-8.48336 5.631195-20.477075 3.65662-15.723468 5.850593-26.766462 7.313241-36.346807 1.535781-9.360948 2.559634-17.259249 3.729753-26.473933l0.950722-0.731324 0.950721-0.804456c12.066848-1.901443 19.818883-2.925296 27.644051-4.168548 7.971433-1.170119 15.869733-2.705899 28.448507-5.119268l0.438795 1.096986 0.438794 1.023854c-2.340237 9.799743-4.680474 19.526353-6.947579 29.472361z m-84.833595 9.141551l-3.290959 14.407085a1318.577346 1318.577346 0 0 0-11.189258 58.57906l-2.340237 1.755178a593.835166 593.835166 0 0 0-50.900157 0.950721l-0.950722-1.755178 6.36252-27.424654 2.925296-12.505642a533.86659 533.86659 0 0 0 9.068419-48.925582c0.438794-4.168547 1.901443-14.626482-9.872875-14.626482-4.826739 0-10.01914 2.486502-15.138409 4.899872-2.852164 10.31167-8.556492 39.491501-11.335524 52.655335-5.850593 27.93658-6.216255 31.154407-8.775889 44.976432l-1.755178 1.755178a615.994287 615.994287 0 0 0-51.92401 0.950721l-1.170119-1.974575c4.095415-16.601057 8.044565-33.348379 11.84745-49.876304 10.092273-45.049564 12.43251-62.162548 15.211542-85.052992l1.901442-1.462648c23.402371-3.290958 28.960434-3.876018 54.264248-9.141551l2.193973 2.413369-3.876018 14.333952c4.24168-2.705899 8.337095-5.265533 12.725039-7.60577 11.920583-5.850593 25.157549-7.605771 32.47079-7.605771 11.042994 0 23.182974 3.071561 28.22911 16.08913 4.826739 11.628053 1.608913 25.962005-4.680474 54.191116zM380.800457 417.001c-7.166976 25.815741-15.504071 55.141837-46.512212 73.863734-18.063705 10.969861-44.464505 17.259249-72.766748 17.259248-21.939723 0-60.6999-3.65662-74.375661-27.93658a55.361234 55.361234 0 0 1-6.362519-27.570919l4.899871-37.297529 2.632767-11.408655 29.838023-134.344237s1.462648-7.386373 1.82831-8.629624c0.731324 0.950721 10.750464 1.389516 67.647479 0.950721 0 0.438794-0.146265 0.877589-0.292529 1.682045-5.265533 15.723468-34.59163 134.929296-34.59163 134.929296l-5.558063 35.688616 0.365662 5.996858c1.755178 17.551778 12.43251 26.839594 30.715612 26.839594 11.481788 0 21.208399-3.437223 29.691758-10.457935 14.772747-12.13998 19.087559-31.081274 25.157549-57.628338l29.472361-138.000857c3.876018 0.950721 16.08913 1.389516 57.335809 0.950721a3.510356 3.510356 0 0 0-0.365662 1.682045c-5.192401 16.162263-35.396086 139.975432-35.396086 139.975432l-3.364091 13.456364z m448.667333 169.95972l-9.580345 32.397657h-71.669762l-7.8983 6.874447c-3.217826 3.290958-4.461077 1.901443-8.775889 4.387944a51.558349 51.558349 0 0 1-23.694901 6.143123h-22.963577l9.360949-31.300671h6.874446c5.850593 0 9.872875-0.511927 11.847451-1.828311a28.52164 28.52164 0 0 0 7.752035-10.238537l13.163834-24.27996h52.289673l-9.214684 17.844308h52.50907z m-20.33081-131.126411c10.092273-45.049564 12.43251-62.162548 15.211542-85.052992l1.82831-1.462648c23.402371-3.290958 29.106699-3.876018 54.33738-9.141551l2.047708 2.413369-3.656621 14.333952c4.095415-2.705899 8.337095-5.265533 12.651907-7.60577 11.774318-5.850593 25.230681-7.605771 32.324525-7.605771 11.042994 0 23.182974 3.071561 28.52164 16.08913 4.607342 11.628053 1.462648 25.962005-4.899871 54.191116l-3.217827 14.407085c-6.581917 31.227539-7.532638 37.151264-11.042993 58.57906l-2.559635 1.755178a594.273961 594.273961 0 0 0-50.900157 0.950721l-0.804456-1.755178c1.974575-9.141551 4.24168-18.283102 6.362519-27.424654l2.779032-12.505642c4.387945-19.526353 8.775889-42.051136 9.214683-48.925582 0.29253-4.168547 1.755178-14.626482-9.799742-14.626482-4.973004 0-10.092273 2.486502-15.284674 4.899872-2.852164 10.31167-8.629624 39.491501-11.335524 52.655335-5.77746 27.93658-6.216255 31.154407-8.775889 44.976432l-1.755178 1.755178a615.48236 615.48236 0 0 0-51.92401 0.950721l-0.950722-1.974575 11.628053-49.876304z m194.093416-112.62391l15.504071-73.790602 1.82831-9.068419c7.166976 0.877589 24.718754 1.170119 68.378803 0.58506l16.820454-0.146265c34.079703 0.146265 63.625196 0.438794 78.471076 21.647193a46.804742 46.804742 0 0 1 7.825167 28.302243c0 7.825168-1.096986 15.650336-2.705899 22.305385a108.089701 108.089701 0 0 1-39.272104 63.698328c-29.106699 21.720326-66.331096 21.720326-99.167547 21.720326h-3.437224c-2.41337 1.462648-4.753607 4.680474-4.753606 4.680474-0.511927 1.170119-8.044565 33.421511-8.044565 33.421511l-10.457935 51.119555c-6.581917-0.731324-22.15912-0.731324-60.261105-0.219397l39.272104-164.18226zM1241.495786 365.808313c8.48336 3.364091 13.822025 8.775889 17.551779 15.138409l0.877589-6.143123 1.755177-1.608913c24.27996-3.510356 30.935009-4.387945 56.165691-9.141551l0.731324 2.047708c-4.534209 19.526353-9.214684 38.83331-13.675761 58.28653-9.214684 40.734752-12.651907 61.577489-16.08913 82.85902l-2.340237 1.755178a700.315955 700.315955 0 0 0-53.898586 0.731324l-1.462648-1.82831 2.267105-8.629624a46.73161 46.73161 0 0 1-26.69333 12.432509 63.186402 63.186402 0 0 1-28.009713-5.119268c-31.300671-12.505642-26.327667-47.316669-21.939722-66.404228 4.314812-18.941294 11.554921-38.54078 26.839594-53.020997 21.720326-20.111413 47.097272-25.596343 57.920868-21.354664zM1528.174832 0.146265h-394.183688c-56.165691 0-112.111984 46.512213-125.34895 103.701757l-50.38823 220.128553c-6.728182-3.802885-18.356235-4.095415-24.645622-4.095415l50.315098-219.836024A155.333238 155.333238 0 0 1 1062.101985 0.146265h-370.049992C636.105699 0.146265 580.086273 46.658477 566.776175 103.848022l-48.779317 213.254106c-9.799743 0.950721-22.232253 1.974575-26.327668 2.925297l50.461363-219.982289A155.040708 155.040708 0 0 1 620.309099 0.146265H315.127553C258.88873 0.146265 202.869304 46.658477 189.778603 103.848022L2.705899 920.371376C-10.238537 977.487787 24.57249 1024 80.591915 1024h311.909728a90.099129 90.099129 0 0 1-20.550207-19.087559c-18.5025-23.694901-24.426225-54.995572-16.820455-88.270818L438.063134 554.270533h25.669476l-83.882874 366.100843C366.685902 977.487787 401.496929 1024 457.589487 1024h376.778175a92.585631 92.585631 0 0 1-20.550207-19.087559c-18.5025-23.694901-24.426225-54.995572-16.820455-88.270818l14.772747-64.502786h25.669476l-15.650336 68.232539c-13.163834 57.116412 21.500928 103.628624 77.739752 103.628624h394.183688c56.238823 0 112.331381-46.512213 125.422082-103.628624l186.999572-816.523354C1619.297815 46.658477 1584.413655 0.146265 1528.247965 0.146265z m-419.414369 602.903585l-12.43251 42.051136s14.041423-6.36252 21.720326-8.48336c7.752035-2.12084 19.453221-2.925296 19.453221-2.925296l9.068419-30.715612h-37.809456z m109.552349-123.447507a27.790316 27.790316 0 0 0 19.526354-9.726611 48.26739 48.26739 0 0 0 5.923725-11.993715c1.682045-6.947579 3.510356-13.895158 5.119269-20.989002l2.925296-13.163833c1.096986-16.235395-4.24168-25.742608-14.407085-25.742609-16.08913 0-22.378517 19.965148-27.64405 43.294387-1.901443 8.410227-3.364091 16.08913-3.364091 23.402371 0.438794 14.919012 10.238537 14.919012 11.920582 14.919012z m-158.624196 288.726753h37.882588l10.969862-37.078132h-37.882589l-10.969861 37.078132zM713.040994 477.188973c5.558063 0 10.750464-3.65662 15.138409-9.872875 6.143122-8.410227 10.750464-28.22911 11.84745-33.567776 5.411798-24.133695 4.607342-38.906442-8.044565-38.906442-15.869733 0-22.232253 20.111413-27.570918 44.02571a105.822597 105.822597 0 0 0-3.217826 23.329239c0.219397 14.992144 10.238537 14.992144 11.84745 14.992144z m387.236109-102.970433a53.313527 53.313527 0 0 0 27.351521-36.639337c3.94915-18.063705-1.608913-31.812598-15.211541-37.004999l-35.103556-3.144694-6.581917-0.731324-0.438795 2.925296-0.365662 3.729753-16.601057 73.351807-0.658191 3.656621h8.922154c14.041423 0 27.570918-0.365662 38.687044-6.143123z m-143.193258 247.699472l5.265534-17.771176h-73.863734l-10.750464 36.200543s14.407085-13.310099 38.833309-17.624911c5.631196-1.023854 40.515355-0.731324 40.515355-0.731324z m-14.772747 46.877874l4.753607-14.845879h-73.351807l-4.461077 14.992144h63.478932c7.459506-0.950721 8.995286 0.146265 9.580345-0.146265z" p-id="3415"></path></svg>