<?xml version="1.0" standalone="no"?><!DOCTYPE svg PUBLIC "-//W3C//DTD SVG 1.1//EN" "http://www.w3.org/Graphics/SVG/1.1/DTD/svg11.dtd"><svg t="1532947196135" class="icon" style="" viewBox="0 0 1024 1024" version="1.1" xmlns="http://www.w3.org/2000/svg" p-id="3451" xmlns:xlink="http://www.w3.org/1999/xlink" width="200" height="200"><defs><style type="text/css"></style></defs><path d="M283.52284445 221.86666667h705.69528888c23.08551111 6.76977778 29.75288889 22.09564445 27.20426667 42.22293333L805.4784 757.76c-11.59395555 15.92888889-27.98933333 26.54435555-51.39342222 29.30915555H23.22204445Q-5.632 784.1792 5.68888889 737.47342222l203.88977778-477.07022222c17.23733333-23.51786667 41.99537778-36.22684445 73.95555555-38.58204445z" fill="#00908C" p-id="3452"></path><path d="M284.23964445 221.86666667h208.66844444c-31.96017778 2.36657778-56.71822222 15.06417778-73.95555556 38.58204444L215.09688889 737.47342222q-11.37777778 46.64888889 17.49902222 49.55022223H23.89333333q-28.85404445-2.84444445-17.49902222-49.55022223l203.88977778-477.07022222c17.27146667-23.52924445 41.99537778-36.26097778 73.95555556-38.53653333z" fill="#E60012" p-id="3453"></path><path d="M492.90808889 221.86666667h256.8192c-31.96017778 2.36657778-56.71822222 15.06417778-73.95555556 38.58204444L471.92746667 737.47342222q-11.37777778 46.64888889 17.49902222 49.55022223H232.60728889q-28.85404445-2.84444445-17.49902222-49.55022223l203.85564444-477.07022222c17.23733333-23.51786667 41.99537778-36.22684445 73.95555556-38.58204445z" fill="#00508E" p-id="3454"></path><path d="M310.79537778 426.21155555H347.02222222l0.4096 16.2816h32.33564445v31.56195556H332.23111111c-7.77102222 13.11857778-22.94897778 18.39786667-38.95751111 14.44977778l-0.15928889-25.47484444c13.40302222-1.62702222 18.93262222-12.86826667 17.65831111-36.80711112z m453.97333333 55.13671112h-26.87431111l-22.38008889-33.57582222c-1.95697778 1.13777778-2.48035555 5.12-4.43733333 6.23502222-3.26542222 1.86595555-6.16675555 0.48924445-9.43217778 2.3552l0.21617778 147.20568888c9.32977778 6.07573333 6.25777778 13.90364445 6.94044444 23.26755556 7.46382222-1.49048889 12.17422222 0.80782222 19.62666667-0.69404444 4.24391111-14.55217778 13.74435555-31.25475555 18.67093333-46.73991112 1.13777778-3.57262222-0.54613333-7.40693333 0.44373333-10.76337777h-29.7984l0.512-28.44444445 35.1232 0.34133334c0-5.97333333 0.69404445-17.44213333 0.69404445-23.41546667h-36.32924445V488.10666667l105.54026667 1.71804444-0.34133333 27.37493334-34.78186667 1.20604444-0.69404444 23.58613333 33.23448889-0.512 0.17066666 25.82755556-35.15733333 0.48924444c-3.14026667 0-1.13777778 6.89493333-3.072 9.84177778v2.27555555c4.48284445 0.54613333 9.88728889-1.69528889 13.99466667 1.72942223 3.77742222 3.15164445 1.4336 11.01368889 4.55111111 16.21333333 5.43857778 9.02257778 7.12248889 20.95786667 22.6304 22.55075556l-0.21617778 33.3824h-23.04c-11.10471111-14.52942222-22.3232-22.92622222-26.87431111-44.86257778l-4.47146667 2.27555556c-4.93795555 18.04515555-13.14133333 31.16373333-24.62151111 42.53013333h-33.56444444c-1.27431111-2.87857778 0.64853333-8.74951111 0.12515555-10.00106667-0.86471111-2.08213333-4.23253333 1.29706667-9.10222222-1.13777778-1.44497778 8.13511111 1.20604445 6.82666667-2.37795555 11.19573334-10.88853333-0.1024-20.85546667 0.35271111-30.03733334-1.13777778-5.68888889-0.9216 0.32995555-8.30577778-5.41582222-9.36391111-14.67733333-2.70791111-43.6224-0.62577778-65.13777778-0.68266667v-29.19537778c8.13511111-1.44497778 6.82666667 1.72942222 11.19573334-1.8432V432.10524445c9.69386667 0.75093333 19.39911111 0.11377778 29.09297777 0.8647111 0.75093333 3.73191111-0.56888889 9.87591111 0.17066667 13.65333334 1.85457778-1.24017778 7.3728 2.58275555 7.58897778 0.25031111 1.34257778-14.16533333 30.25351111-17.76071111 57.84462222-14.97315555 5.92782222 0.60302222-0.52337778-4.94933333 6.00746666-5.26791112 10.71786667-0.52337778 22.10702222-1.83182222 33.5872-1.13777778 5.07448889 11.5712 7.80515555 19.72906667 20.15004445 24.62151112v31.3344z m29.09297778-53.71448889h31.3344v4.47146667c7.17937778 19.52426667-11.10471111 37.376-20.48 48.03697777l-26.33955556 0.17066667-0.19342222-29.75288889c11.37777778-2.10488889 11.85564445-4.13013333 15.6672-11.70773333v-11.19573334z m-395.94666667 2.27555555h25.03111111l0.83057778 17.90862222c17.92-17.69244445 42.46186667-19.58115555 88.24604444-16.49777777l0.22755556 93.84391111c0 12.75448889-11.53706667 17.73795555-12.73173333 19.47875556l-79.36-0.78506667 0.36408889 67.50435555c2.20728889 3.92533333 4.97208889 6.9632 8.54471111 6.94044445l22.75555555-0.14791111-0.34133333 31.30026666-48.8448-0.19342222c-4.32355555-0.54613333-5.68888889-4.05048889-5.68888889-8.89742222l1.00124444-210.55715556z m248.47928889 28.10311112c-5.38168889 11.37777778-5.81404445 23.89333333-5.4272 42.81457777 13.12995555-1.39946667 20.48-6.03022222 27.55697778-13.42577777-0.75093333-9.69386667 0.6144-19.34222222-0.12515556-29.01333334-6.71288889 0-15.29173333-0.37546667-22.00462222-0.37546666z m-219.94382222 4.7559111v28.33066667c2.27555555-2.27555555 5.49546667-3.20853333 7.73688889-5.44995555 18.45475555-15.62168889 25.79342222-7.46382222 41.51751111-11.69635556v-11.19573333z m-135.39555556 34.29262223h91.77315556v24.62151111H347.02222222v26.97671111h33.57582223v28.9792h-15.7240889c-7.19075555 13.88088889-18.85297778 30.17386667-15.6672 47.0016h24.62151112v26.86293333l-42.53013334 2.27555556c-21.37884445-12.26524445-19.34222222-41.7792-17.90862222-76.10595556h-24.61013333v-29.05884444h24.62151111v-26.97671111h-22.39146667v-24.62151111z m184.66133334 23.60888889l0.55751111-13.38026667-47.78666667 0.2048v13.48266667l47.2064-0.3072z m164.97777778-3.41333334V555.23555555c9.69386667-2.27555555 18.20444445-4.47146667 27.86417777-6.71288888v-31.36853334zM493.79555555 552.96h22.12977778c-0.75093333 10.4448-0.21617778 22.67591111-0.96711111 33.12071111-8.63573333 3.61813333-18.944 3.21991111-33.06382222 2.94684444v6.9632c3.51573333 11.07057778 1.13777778 21.43573333 12.36764445 25.83893334 4.74453333-4.84693333 10.24-3.94808889 20.48-3.97084444-0.75093333 10.4448 0.28444445 20.8896-0.45511112 31.3344-18.55715555 0.45511111-33.32551111 1.91146667-41.97262222-3.82293334-22.97173333-15.23484445-17.35111111-53.47555555-28.18275556-87.95022222 0.75093333-1.49048889 2.27555555-2.98097778 3.00373334-4.47146667h24.62151111c2.27555555 5.97333333 2.18453333 12.44728889 4.42595555 18.40924445 10.10346667-0.47786667 11.81013333-2.09351111 17.65831112-4.98346667V552.96z m148.73031112 20.15004445v35.81724444h24.66702222c-0.75093333-11.93528889 0-23.26755555-0.70542222-35.20284444-7.46382222 0-16.46364445-0.6144-23.89333334-0.6144z" fill="#FFFFFF" p-id="3455"></path></svg>