<?xml version="1.0" standalone="no"?><!DOCTYPE svg PUBLIC "-//W3C//DTD SVG 1.1//EN" "http://www.w3.org/Graphics/SVG/1.1/DTD/svg11.dtd"><svg t="1535437478170" class="icon" style="" viewBox="0 0 1024 1024" version="1.1" xmlns="http://www.w3.org/2000/svg" p-id="7418" xmlns:xlink="http://www.w3.org/1999/xlink" width="200" height="200"><defs><style type="text/css"></style></defs><path d="M512 1019.630933c-282.7776 0-512-228.2496-512-509.815466C0 228.2496 229.2224 0 512 0c282.7776 0 512 228.2496 512 509.815467 0 281.565867-229.2224 509.815467-512 509.815466z m17.066667-516.864V203.946667a17.032533 17.032533 0 0 0-17.066667-16.9984c-9.4208 0-17.066667 7.611733-17.066667 16.9984v305.885866c0 5.614933 2.7648 10.5472 6.980267 13.653334 0.494933 0.631467 0.955733 1.297067 1.553067 1.877333l193.0752 192.273067a17.117867 17.117867 0 0 0 24.149333 0 16.9472 16.9472 0 0 0 0-24.029867L529.066667 502.784z" fill="#FFD15B" p-id="7419"></path></svg>