<?xml version="1.0" standalone="no"?><!DOCTYPE svg PUBLIC "-//W3C//DTD SVG 1.1//EN" "http://www.w3.org/Graphics/SVG/1.1/DTD/svg11.dtd"><svg t="1544618897283" class="icon" style="" viewBox="0 0 1024 1024" version="1.1" xmlns="http://www.w3.org/2000/svg" p-id="4589" xmlns:xlink="http://www.w3.org/1999/xlink" width="200" height="200"><defs><style type="text/css"></style></defs><path d="M512 512m512 0a512 512 0 1 0-1024 0 512 512 0 1 0 1024 0Z" fill="#DDDDDD" p-id="4590"></path><path d="M487.131429 658.285714l-168.228572-153.6a36.571429 36.571429 0 0 1 0-51.931428 38.034286 38.034286 0 0 1 24.137143-13.897143L680.96 438.857143a36.571429 36.571429 0 0 1 36.571429 36.571428 35.108571 35.108571 0 0 1-12.434286 27.062858L536.868571 658.285714a38.034286 38.034286 0 0 1-49.737142 0z" fill="#BBBBBB" p-id="4591"></path></svg>