<?xml version="1.0" standalone="no"?><!DOCTYPE svg PUBLIC "-//W3C//DTD SVG 1.1//EN" "http://www.w3.org/Graphics/SVG/1.1/DTD/svg11.dtd"><svg t="1534402056773" class="icon" style="" viewBox="0 0 1024 1024" version="1.1" xmlns="http://www.w3.org/2000/svg" p-id="6483" xmlns:xlink="http://www.w3.org/1999/xlink" width="200" height="200"><defs><style type="text/css"></style></defs><path d="M181.419238 902.949004a511.998171 511.998171 0 1 1 661.209067 0l-38.838718-63.122061a438.855576 438.855576 0 1 0-583.531631 0l-38.838718 63.122061z m77.896865-126.536691a365.71298 365.71298 0 1 1 505.415337 0l-39.497001-64.146057a292.570384 292.570384 0 1 0-426.56762 0l-39.350716 64.072914z m79.652286-129.462395a219.427788 219.427788 0 1 1 346.110764 0l-42.422705-68.973468a146.285192 146.285192 0 1 0-261.19221 0l-42.495849 68.973468zM512.023771 512.001829l292.570384 511.998171H219.453388l292.570383-511.998171z m-166.54569 438.855575h333.091381L512.023771 659.457302 345.478081 950.857404z" fill="#333333" p-id="6484"></path></svg>