<?xml version="1.0" standalone="no"?><!DOCTYPE svg PUBLIC "-//W3C//DTD SVG 1.1//EN" "http://www.w3.org/Graphics/SVG/1.1/DTD/svg11.dtd"><svg t="1532655604470" class="icon" style="" viewBox="0 0 1077 1024" version="1.1" xmlns="http://www.w3.org/2000/svg" p-id="4100" xmlns:xlink="http://www.w3.org/1999/xlink" width="210.3515625" height="200"><defs><style type="text/css"></style></defs><path d="M53.894737 207.225263l74.913684 552.852211c3.772632 27.648 27.755789 48.343579 56.158316 48.343579h707.961263c28.402526 0 52.385684-20.695579 56.158316-48.343579L1024 207.225263l-274.701474 315.284211L545.414737 53.894737 326.817684 520.515368 53.894737 207.225263z m710.494316 211.105684l214.339368-246.298947a56.966737 56.966737 0 0 1 79.494737-5.982316c14.497684 12.234105 21.719579 30.827789 19.186526 49.475369l-74.536421 550.480842A112.101053 112.101053 0 0 1 891.149474 862.315789H186.745263a112.101053 112.101053 0 0 1-111.723789-96.309894L0.538947 215.525053a55.673263 55.673263 0 0 1 48.451369-62.356211c18.863158-2.479158 37.780211 4.634947 50.229895 18.863158l214.339368 246.298947L494.214737 32.282947a56.751158 56.751158 0 0 1 102.992842 1.401264l167.235368 384.646736zM80.842105 970.105263h916.210527a26.947368 26.947368 0 1 1 0 53.894737h-916.210527a26.947368 26.947368 0 1 1 0-53.894737z" fill="currentColor" p-id="4101"></path></svg>