<?xml version="1.0" standalone="no"?><!DOCTYPE svg PUBLIC "-//W3C//DTD SVG 1.1//EN" "http://www.w3.org/Graphics/SVG/1.1/DTD/svg11.dtd"><svg t="1534388356211" class="icon" style="" viewBox="0 0 1024 1024" version="1.1" xmlns="http://www.w3.org/2000/svg" p-id="5491" xmlns:xlink="http://www.w3.org/1999/xlink" width="200" height="200"><defs><style type="text/css"></style></defs><path d="M290.247111 56.888889h443.505778c81.123556 0 110.535111 8.476444 140.231111 24.291555 29.639111 15.928889 52.906667 39.196444 68.835556 68.835556 15.815111 29.696 24.291556 59.107556 24.291555 140.231111v443.505778c0 81.123556-8.476444 110.535111-24.291555 140.231111-15.928889 29.639111-39.196444 52.906667-68.835556 68.835556-29.696 15.815111-59.107556 24.291556-140.231111 24.291555H290.247111c-81.123556 0-110.535111-8.476444-140.231111-24.291555a165.432889 165.432889 0 0 1-68.835556-68.835556C65.422222 844.288 56.888889 814.876444 56.888889 733.752889V290.247111c0-81.123556 8.476444-110.535111 24.291555-140.231111 15.928889-29.639111 39.196444-52.906667 68.835556-68.835556C179.712 65.422222 209.123556 56.888889 290.247111 56.888889zM682.666667 321.024V227.555556H341.333333v182.954666h93.411556V321.024h141.653333L402.318222 796.444444H508.586667L682.666667 321.024z" fill="#999999" p-id="5492"></path></svg>