<?xml version="1.0" standalone="no"?><!DOCTYPE svg PUBLIC "-//W3C//DTD SVG 1.1//EN" "http://www.w3.org/Graphics/SVG/1.1/DTD/svg11.dtd"><svg t="1532602599477" class="icon" style="" viewBox="0 0 1024 1024" version="1.1" xmlns="http://www.w3.org/2000/svg" p-id="7321" xmlns:xlink="http://www.w3.org/1999/xlink" width="200" height="200"><defs><style type="text/css"></style></defs><path d="M646.016 251.424l181.184 98.336c13.248 7.2 20.032 20.096 20.448 33.152h1.28V765.76a19.552 19.552 0 0 1-7.52 26.88L506.56 976.96l-333.12-184.416a19.52 19.52 0 0 1-10.08-17.024H160v-392.64h0.32c-0.832-14.304 6.048-28.96 20.576-36.736l180.32-96.416-48.416-46.688a27.424 27.424 0 0 1 15.232-46.88l104.928-15.04 46.88-93.92a27.584 27.584 0 0 1 49.28 0L576 141.12l104.96 15.072c22.56 3.264 31.68 30.976 15.2 46.912l-50.144 48.32z m-258.048 28.384L199.36 380.672l305.536 165.824 303.68-162.368-187.104-101.504 16.768 96.576c3.904 22.496-19.744 39.456-39.872 29.024l-93.888-48.8-93.888 48.8c-20.16 10.432-43.776-6.528-39.872-29.024l17.248-99.392z m-188.864 145.216v337.088l285.824 158.208V580.16l-285.824-155.136z m610.752 2.784l-285.824 152.8v342.08l285.824-157.344V427.84z m-351.04-250.88l-101.632 14.592L430.688 262.4l-17.408 100.384 91.2-47.424 9.024 4.704 82.176 42.72-17.408-100.384 7.488-7.2 66.016-63.648-101.6-14.592-4.576-9.152-41.12-82.368-45.696 91.52z" fill="#BBBBBB" p-id="7322"></path></svg>