<?xml version="1.0" standalone="no"?><!DOCTYPE svg PUBLIC "-//W3C//DTD SVG 1.1//EN" "http://www.w3.org/Graphics/SVG/1.1/DTD/svg11.dtd"><svg t="1532600178512" class="icon" style="" viewBox="0 0 1024 1024" version="1.1" xmlns="http://www.w3.org/2000/svg" p-id="6286" xmlns:xlink="http://www.w3.org/1999/xlink" width="200" height="200"><defs><style type="text/css"></style></defs><path d="M430.08 542.72L23.3472 412.672a25.6 25.6 0 0 1-1.1264-48.384L984.8832 6.4512a25.6 25.6 0 0 1 33.0752 32.5632l-343.7056 965.12a25.6 25.6 0 0 1-48.2304 0l-152.8832-427.776c-11.0592 7.0144-23.552 14.4896-39.424 23.552l-15.6672 9.0112c-24.2176 13.824-37.9392 22.1696-51.6096 31.488a25.6 25.6 0 1 1-28.8768-42.2912c15.104-10.24 29.696-19.0976 55.04-33.6384l15.616-8.96c8.192-4.7104 15.36-8.9088 21.9136-12.8zM109.5168 386.56L492.7488 508.928a25.6 25.6 0 0 1 16.3328 15.7696l141.0048 394.5984 301.2096-845.824L109.4656 386.56z m585.8816-70.8096a25.6 25.6 0 0 1 34.2528 38.0928l-114.2784 102.656a25.6 25.6 0 1 1-34.2016-38.0928l114.2272-102.656zM238.336 742.912a25.6 25.6 0 1 1 50.688 7.1168l-0.3072 2.4064c-7.0144 57.2928-28.2624 110.6944-60.3136 152.8832a25.6 25.6 0 0 1-40.8064-30.976c26.5216-34.8672 44.3904-79.7184 50.3296-128.1536l0.4096-3.2768z m-163.84 197.9904a25.6 25.6 0 0 1 1.8944 51.2c-13.312 0.512-26.624-0.6144-39.936-3.2768a25.6 25.6 0 0 1 10.0864-50.176c9.3184 1.8944 18.6368 2.6112 27.904 2.2528z" fill="#666666" p-id="6287"></path></svg>