<?xml version="1.0" standalone="no"?><!DOCTYPE svg PUBLIC "-//W3C//DTD SVG 1.1//EN" "http://www.w3.org/Graphics/SVG/1.1/DTD/svg11.dtd"><svg class="icon" width="200px" height="200.00px" viewBox="0 0 1024 1024" version="1.1" xmlns="http://www.w3.org/2000/svg"><path d="M800 393.6l-105.6-16-96-195.2c-9.6-19.2-25.6-35.2-44.8-44.8-48-22.4-105.6-3.2-128 44.8l-96 195.2-105.6 16V128c0-35.2 28.8-64 64-64h448c35.2 0 64 28.8 64 64v265.6z" fill="#DDDDDD" /><path d="M512 867.2l224 118.4c6.4 3.2 12.8 3.2 19.2 3.2 16-3.2 28.8-19.2 25.6-35.2L739.2 704l179.2-176c6.4-6.4 9.6-12.8 9.6-19.2 3.2-16-9.6-32-25.6-35.2l-249.6-35.2-112-227.2c-3.2-6.4-9.6-12.8-16-16-16-6.4-35.2 0-41.6 16l-112 227.2-249.6 35.2c-6.4 0-12.8 3.2-19.2 9.6-12.8 12.8-12.8 32 0 44.8L281.6 704l-41.6 249.6c0 6.4 0 12.8 3.2 19.2 12.8 12.8 32 19.2 44.8 9.6l224-115.2z" fill="#CCCCCC" /></svg>