<?xml version="1.0" standalone="no"?><!DOCTYPE svg PUBLIC "-//W3C//DTD SVG 1.1//EN" "http://www.w3.org/Graphics/SVG/1.1/DTD/svg11.dtd"><svg t="1534388375160" class="icon" style="" viewBox="0 0 1024 1024" version="1.1" xmlns="http://www.w3.org/2000/svg" p-id="5739" xmlns:xlink="http://www.w3.org/1999/xlink" width="200" height="200"><defs><style type="text/css"></style></defs><path d="M455.111111 724.309333V853.333333h113.777778v-129.024a113.777778 113.777778 0 1 0-113.777778 0zM170.666667 398.222222a341.333333 341.333333 0 1 1 682.666666 0h56.888889a56.888889 56.888889 0 0 1 56.888889 56.888889v455.111111a56.888889 56.888889 0 0 1-56.888889 56.888889H113.777778a56.888889 56.888889 0 0 1-56.888889-56.888889V455.111111a56.888889 56.888889 0 0 1 56.888889-56.888889h56.888889z m568.888889 0a227.555556 227.555556 0 1 0-455.111112 0h455.111112z" fill="#999999" p-id="5740"></path></svg>