<?xml version="1.0" standalone="no"?><!DOCTYPE svg PUBLIC "-//W3C//DTD SVG 1.1//EN" "http://www.w3.org/Graphics/SVG/1.1/DTD/svg11.dtd"><svg t="1533036665291" class="icon" style="" viewBox="0 0 1024 1024" version="1.1" xmlns="http://www.w3.org/2000/svg" p-id="3425" xmlns:xlink="http://www.w3.org/1999/xlink" width="200" height="200"><defs><style type="text/css"></style></defs><path d="M512 60.269714A452.242286 452.242286 0 0 1 963.730286 512 452.242286 452.242286 0 0 1 512 963.730286 452.242286 452.242286 0 0 1 60.269714 512 452.315429 452.315429 0 0 1 512 60.269714zM512 0a512 512 0 1 0 0 1024A512 512 0 0 0 512 0z m-42.934857 753.517714a42.934857 42.934857 0 1 0 85.869714 0 42.934857 42.934857 0 0 0-85.869714 0z m36.644571-96.621714a30.134857 30.134857 0 0 1-30.061714-30.134857c0-118.491429 105.106286-168.374857 105.618286-168.594286 25.819429-20.553143 40.740571-42.861714 37.229714-75.337143-2.486857-23.405714-28.452571-52.516571-63.926857-59.977143-36.937143-8.484571-83.382857 3.803429-106.934857 24.502858-30.354286 26.697143-31.670857 67.364571-31.670857 67.803428a30.208 30.208 0 0 1-30.061715 29.549714H385.462857a30.061714 30.061714 0 0 1-29.696-30.208c0-2.706286 1.024-66.852571 51.273143-111.689142 37.522286-33.499429 97.426286-53.394286 165.888-37.595429 118.857143 39.716571 110.299429 125.366857 101.010286 156.964571-8.777143 30.281143-24.502857 66.194286-69.12 90.989715l0.146285 0.365714c-2.706286 1.243429-69.046857 33.792-69.046857 113.152a30.208 30.208 0 0 1-30.208 30.208z" p-id="3426"></path></svg>