<?xml version="1.0" standalone="no"?><!DOCTYPE svg PUBLIC "-//W3C//DTD SVG 1.1//EN" "http://www.w3.org/Graphics/SVG/1.1/DTD/svg11.dtd"><svg t="1532603158737" class="icon" style="" viewBox="0 0 1024 1024" version="1.1" xmlns="http://www.w3.org/2000/svg" p-id="8011" xmlns:xlink="http://www.w3.org/1999/xlink" width="200" height="200"><defs><style type="text/css"></style></defs><path d="M332.8 102.4H230.3232A25.5744 25.5744 0 0 0 204.8 128v102.4h614.4V128c0-14.208-11.392-25.6-25.5232-25.6H691.2v25.6a12.8 12.8 0 1 1-25.6 0V102.4H358.4v25.6a12.8 12.8 0 1 1-25.6 0V102.4z m25.6-25.6h307.2V51.2a12.8 12.8 0 1 1 25.6 0v25.6h102.4768C821.9136 76.8 844.8 99.6352 844.8 128v768c0 28.288-22.912 51.2-51.1232 51.2H230.3232A51.0976 51.0976 0 0 1 179.2 896V128c0-28.288 22.912-51.2 51.1232-51.2H332.8V51.2a12.8 12.8 0 1 1 25.6 0v25.6z m460.8 179.2H204.8v640c0 14.208 11.392 25.6 25.5232 25.6h563.3536c14.08 0 25.5232-11.4688 25.5232-25.6V256z m-111.4624 170.1376l18.1248 18.1248L460.8 709.2992l-137.0624-137.0368 18.1248-18.1248L460.8 673.1008l246.9376-246.9632z" fill="#666666" p-id="8012"></path></svg>