<?xml version="1.0" standalone="no"?><!DOCTYPE svg PUBLIC "-//W3C//DTD SVG 1.1//EN" "http://www.w3.org/Graphics/SVG/1.1/DTD/svg11.dtd"><svg t="1534313761886" class="icon" style="" viewBox="0 0 1024 1024" version="1.1" xmlns="http://www.w3.org/2000/svg" p-id="12189" xmlns:xlink="http://www.w3.org/1999/xlink" width="200" height="200"><defs><style type="text/css"></style></defs><path d="M717.946527 80.423654c-165.294696-136.84268-332.636913-82.455393-388.175931 39.24416-8.957906 20.13396-61.169702 156.294133 80.066618 312.758893l1.023761 1.109074c2.260805 2.516745 4.64958 5.03349 6.995698 7.550235 70.810115 74.905158 172.33305 126.477103 172.33305 233.716036 0 135.179069-141.193663 243.697702-284.861413 157.48852 0 0-23.162586-14.417963-38.902907-34.253327-19.408797-24.39963-133.387487-167.854097 96.830699-338.566193-28.153419-27.897479-113.46681-124.984118-103.442487-268.310616C128.303023 314.90751 85.433043 449.190788 85.433043 571.444878c0 279.571983 197.372531 459.625896 427.718688 452.160974 267.542795-8.701966 438.937398-216.440074 438.937398-484.836003 0-156.46476-78.829574-329.778914-234.142602-458.303538" p-id="12190"></path></svg>