<?xml version="1.0" standalone="no"?><!DOCTYPE svg PUBLIC "-//W3C//DTD SVG 1.1//EN" "http://www.w3.org/Graphics/SVG/1.1/DTD/svg11.dtd"><svg t="1534407222015" class="icon" style="" viewBox="0 0 1024 1024" version="1.1" xmlns="http://www.w3.org/2000/svg" p-id="6692" xmlns:xlink="http://www.w3.org/1999/xlink" width="200" height="200"><defs><style type="text/css"></style></defs><path d="M288 128v32c0 54.4 41.6 96 96 96h256c54.4 0 96-41.6 96-96V128h96c35.2 0 64 28.8 64 64v704c0 35.2-28.8 64-64 64h-288v-224h96c19.2 0 32-12.8 32-32s-12.8-32-32-32h-96v-96h96c19.2 0 32-12.8 32-32s-12.8-32-32-32h-70.4l67.2-112c9.6-16 3.2-35.2-9.6-44.8-16-9.6-35.2-3.2-44.8 9.6L512 483.2l-67.2-115.2c-9.6-16-28.8-19.2-44.8-9.6-16 9.6-19.2 28.8-9.6 44.8l67.2 112H384c-19.2 0-32 12.8-32 32s12.8 32 32 32h96v96h-96c-19.2 0-32 12.8-32 32s12.8 32 32 32h96v224H192c-35.2 0-64-28.8-64-64V192c0-35.2 28.8-64 64-64h96z" fill="#CCCCCC" p-id="6693"></path><path d="M384 64c-19.2 0-32 12.8-32 32v64c0 19.2 12.8 32 32 32h256c19.2 0 32-12.8 32-32V96c0-19.2-12.8-32-32-32h-256z" fill="#DDDDDD" p-id="6694"></path></svg>