<?xml version="1.0" standalone="no"?><!DOCTYPE svg PUBLIC "-//W3C//DTD SVG 1.1//EN" "http://www.w3.org/Graphics/SVG/1.1/DTD/svg11.dtd"><svg t="1554285820570" class="icon" style="" viewBox="0 0 1024 1024" version="1.1" xmlns="http://www.w3.org/2000/svg" p-id="2454" xmlns:xlink="http://www.w3.org/1999/xlink" width="200" height="200"><defs><style type="text/css"></style></defs><path d="M512 512m-512 0a512 512 0 1 0 1024 0 512 512 0 1 0-1024 0Z" fill="#FF6252" p-id="2455"></path><path d="M360.3456 230.4h303.3088c18.4832 0 25.1904 1.92 31.9488 5.504 6.7328 3.584 12.032 8.8576 15.6672 15.5648 3.584 6.7072 5.5296 13.3632 5.5296 31.7184v483.2256c0 18.3552-1.92 25.0112-5.5296 31.744a37.5552 37.5552 0 0 1-15.6672 15.5392c-6.7584 3.584-13.4656 5.504-31.9488 5.504H360.3456c-18.4832 0-25.1904-1.92-31.9488-5.504a37.5552 37.5552 0 0 1-15.6672-15.5648c-3.584-6.7072-5.5296-13.3632-5.5296-31.7184V283.1872c0-18.3552 1.92-25.0112 5.5296-31.744 3.6096-6.6816 8.9344-11.9552 15.6672-15.5392 6.7584-3.584 13.4656-5.504 31.9488-5.504z m112.384 53.9392c-6.6048 0-11.9296 4.5056-11.9296 10.0608 0 5.5552 5.3248 10.0608 11.904 10.0608h78.592c6.5792 0 11.904-4.5056 11.904-10.0608 0-5.5552-5.3248-10.0608-11.904-10.0608h-78.592z m-70.912 80.7936c-9.6 0-13.1072 1.024-16.64 2.8928a19.6096 19.6096 0 0 0-8.1408 8.1664c-1.8688 3.5072-2.8928 6.9888-2.8928 16.64v354.2272c0 9.6256 1.024 13.1072 2.8928 16.64a19.6096 19.6096 0 0 0 8.1664 8.1664c3.5072 1.8688 7.0144 2.8672 16.64 2.8672h226.2272c9.6256 0 13.1072-0.9984 16.64-2.8672a19.6096 19.6096 0 0 0 8.1664-8.192c1.8688-3.5072 2.8672-6.9888 2.8672-16.64V392.832c0-9.6256-0.9984-13.1072-2.8672-16.64a19.6096 19.6096 0 0 0-8.192-8.1408c-3.5072-1.8944-6.9888-2.8928-16.6144-2.8928h-226.2272z" fill="#FFFFFF" p-id="2456"></path></svg>