<?xml version="1.0" standalone="no"?><!DOCTYPE svg PUBLIC "-//W3C//DTD SVG 1.1//EN" "http://www.w3.org/Graphics/SVG/1.1/DTD/svg11.dtd"><svg t="1534329483316" class="icon" style="" viewBox="0 0 1024 1024" version="1.1" xmlns="http://www.w3.org/2000/svg" p-id="4934" xmlns:xlink="http://www.w3.org/1999/xlink" width="200" height="200"><defs><style type="text/css"></style></defs><path d="M896 298.666667a425.088 425.088 0 0 0-143.957333-70.485334A85.333333 85.333333 0 0 0 671.317333 170.666667H256a85.333333 85.333333 0 0 0-85.333333 85.333333v512a85.333333 85.333333 0 0 0 85.333333 85.333333h14.421333a428.8 428.8 0 0 0 113.536 128H261.461333c-76.074667 0-103.68-7.936-131.498666-22.784a155.093333 155.093333 0 0 1-64.512-64.512C50.602667 866.218667 42.666667 838.613333 42.666667 762.538667V261.461333c0-76.074667 7.936-103.68 22.784-131.498666a155.093333 155.093333 0 0 1 64.512-64.512C157.781333 50.602667 185.386667 42.666667 261.461333 42.666667h415.744c76.074667 0 103.68 7.936 131.498667 22.784 27.818667 14.890667 49.621333 36.693333 64.512 64.512 14.848 27.818667 22.784 55.424 22.784 131.498666v37.162667z m-256 682.666666a341.333333 341.333333 0 1 1 0-682.666666 341.333333 341.333333 0 0 1 0 682.666666z m91.221333-455.424l-125.269333 127.573334-57.173333-58.24a45.952 45.952 0 0 0-65.792 0 48.085333 48.085333 0 0 0 0 67.072l90.069333 91.776a45.952 45.952 0 0 0 65.834667 0l158.122666-161.109334a48.085333 48.085333 0 0 0 0-67.072 45.952 45.952 0 0 0-65.792 0z" fill="#BBBBBB" p-id="4935"></path></svg>